<svg width="161" height="162" viewBox="0 0 161 162" fill="none" xmlns="http://www.w3.org/2000/svg">
<g id="Group 1000001257">
<g id="Group 2">
<g id="Rectangle">
<g id="Mask" filter="url(#filter0_d_142_131)">
<ellipse cx="80.2301" cy="74.7614" rx="63.2301" ry="63.7614" fill="url(#paint0_linear_142_131)"/>
</g>
</g>
<ellipse id="Oval" cx="80.2301" cy="153.842" rx="46.7584" ry="5.31345" fill="#5B99FA" fill-opacity="0.0843524"/>
</g>
<g id="Group 1000001255">
<path id="Vector" d="M110 104H53V51H110V104ZM61.1873 95.9232H101.813V59.0768H61.1873V95.9232Z" fill="#6AAAFF"/>
<path id="Vector_2" d="M43.5369 67H48.4523V89H43.5369V67ZM36 73.0181H40.9154V82.9653H36V73.0181ZM114.548 67H119.463V89H114.548V67ZM122.085 73.0181H127V82.9653H122.085V73.0181Z" fill="#1C7CFF"/>
<path id="Vector_3" d="M68 74C68 74.5253 68.1035 75.0454 68.3045 75.5307C68.5055 76.016 68.8001 76.457 69.1716 76.8284C69.543 77.1999 69.984 77.4945 70.4693 77.6955C70.9546 77.8965 71.4747 78 72 78C72.5253 78 73.0454 77.8965 73.5307 77.6955C74.016 77.4945 74.457 77.1999 74.8284 76.8284C75.1999 76.457 75.4945 76.016 75.6955 75.5307C75.8965 75.0454 76 74.5253 76 74C76 72.9391 75.5786 71.9217 74.8284 71.1716C74.0783 70.4214 73.0609 70 72 70C70.9391 70 69.9217 70.4214 69.1716 71.1716C68.4214 71.9217 68 72.9391 68 74Z" fill="#6AAAFF"/>
<path id="Vector_4" d="M88 74C88 75.0609 88.4214 76.0783 89.1716 76.8284C89.9217 77.5786 90.9391 78 92 78C93.0609 78 94.0783 77.5786 94.8284 76.8284C95.5786 76.0783 96 75.0609 96 74C96 72.9391 95.5786 71.9217 94.8284 71.1716C94.0783 70.4214 93.0609 70 92 70C90.9391 70 89.9217 70.4214 89.1716 71.1716C88.4214 71.9217 88 72.9391 88 74Z" fill="#6AAAFF"/>
<path id="Vector_5" d="M82 45C80.4087 45 78.8826 45.6321 77.7574 46.7574C76.6321 47.8826 76 49.4087 76 51H88C88 49.4087 87.3679 47.8826 86.2426 46.7574C85.1174 45.6321 83.5913 45 82 45Z" fill="#1C7CFF"/>
<path id="Vector_6" d="M60 108H103V111H60V108Z" fill="#6AAAFF"/>
</g>
<g id="Group 1000001256">
<path id="Vector_7" d="M110 101H53V48H110V101ZM61.1873 92.9232H101.813V56.0768H61.1873V92.9232Z" fill="#F1F7FF"/>
<path id="Vector_8" d="M43.5369 64H48.4523V86H43.5369V64ZM36 70.0181H40.9154V79.9653H36V70.0181ZM114.548 64H119.463V86H114.548V64ZM122.085 70.0181H127V79.9653H122.085V70.0181Z" fill="#BFDAFF"/>
<path id="Vector_9" d="M68 73C68 73.5253 68.1035 74.0454 68.3045 74.5307C68.5055 75.016 68.8001 75.457 69.1716 75.8284C69.543 76.1999 69.984 76.4945 70.4693 76.6955C70.9546 76.8965 71.4747 77 72 77C72.5253 77 73.0454 76.8965 73.5307 76.6955C74.016 76.4945 74.457 76.1999 74.8284 75.8284C75.1999 75.457 75.4945 75.016 75.6955 74.5307C75.8965 74.0454 76 73.5253 76 73C76 71.9391 75.5786 70.9217 74.8284 70.1716C74.0783 69.4214 73.0609 69 72 69C70.9391 69 69.9217 69.4214 69.1716 70.1716C68.4214 70.9217 68 71.9391 68 73Z" fill="#F1F7FF"/>
<path id="Vector_10" d="M88 73C88 74.0609 88.4214 75.0783 89.1716 75.8284C89.9217 76.5786 90.9391 77 92 77C93.0609 77 94.0783 76.5786 94.8284 75.8284C95.5786 75.0783 96 74.0609 96 73C96 71.9391 95.5786 70.9217 94.8284 70.1716C94.0783 69.4214 93.0609 69 92 69C90.9391 69 89.9217 69.4214 89.1716 70.1716C88.4214 70.9217 88 71.9391 88 73Z" fill="#F1F7FF"/>
<path id="Vector_11" d="M82 42C80.4087 42 78.8826 42.6321 77.7574 43.7574C76.6321 44.8826 76 46.4087 76 48H88C88 46.4087 87.3679 44.8826 86.2426 43.7574C85.1174 42.6321 83.5913 42 82 42Z" fill="#BFDAFF"/>
<path id="Vector_12" d="M60 105H103V108H60V105Z" fill="#F1F7FF"/>
</g>
</g>
<defs>
<filter id="filter0_d_142_131" x="0" y="0" width="160.46" height="161.523" filterUnits="userSpaceOnUse" color-interpolation-filters="sRGB">
<feFlood flood-opacity="0" result="BackgroundImageFix"/>
<feColorMatrix in="SourceAlpha" type="matrix" values="0 0 0 0 0 0 0 0 0 0 0 0 0 0 0 0 0 0 127 0" result="hardAlpha"/>
<feOffset dy="6"/>
<feGaussianBlur stdDeviation="8.5"/>
<feColorMatrix type="matrix" values="0 0 0 0 0.235294 0 0 0 0 0.47451 0 0 0 0 1 0 0 0 0.139748 0"/>
<feBlend mode="normal" in2="BackgroundImageFix" result="effect1_dropShadow_142_131"/>
<feBlend mode="normal" in="SourceGraphic" in2="effect1_dropShadow_142_131" result="shape"/>
</filter>
<linearGradient id="paint0_linear_142_131" x1="155.294" y1="162.39" x2="155.294" y2="11" gradientUnits="userSpaceOnUse">
<stop stop-color="#81C2FF"/>
<stop offset="1" stop-color="#3875FF"/>
</linearGradient>
</defs>
</svg>
