<svg width="40" height="40" viewBox="0 0 40 40" fill="none" xmlns="http://www.w3.org/2000/svg">
<g id="Group 1000001301">
<g id="Group 1000001300">
<g id="Group 1000001286">
<path id="Binance Coin (BNB)" d="M39.4016 24.8381C36.7301 35.5525 25.877 42.0731 15.1601 39.4012C4.44772 36.7301 -2.07358 25.8775 0.599038 15.1639C3.26931 4.44838 14.1225 -2.07268 24.836 0.598468C35.5521 3.26961 42.073 14.1234 39.4013 24.8383L39.4015 24.8381H39.4016Z" fill="#277FFA"/>
</g>
</g>
<g id="all-fill 1">
<path id="Vector" d="M17.7126 10.8574C17.9377 10.8574 18.1607 10.9018 18.3686 10.9879C18.5766 11.0741 18.7656 11.2003 18.9248 11.3595C19.084 11.5187 19.2103 11.7077 19.2964 11.9157C19.3826 12.1237 19.4269 12.3466 19.4269 12.5717V19.4289H12.5698C12.3446 19.4289 12.1217 19.3845 11.9137 19.2984C11.7057 19.2122 11.5168 19.0859 11.3576 18.9267C11.1984 18.7676 11.0721 18.5786 10.986 18.3706C10.8998 18.1626 10.8555 17.9397 10.8555 17.7146V12.5717C10.8555 12.1171 11.0361 11.681 11.3576 11.3595C11.6791 11.038 12.1151 10.8574 12.5698 10.8574H17.7126ZM19.4269 20.5717V27.4289C19.4269 27.654 19.3826 27.8769 19.2964 28.0849C19.2103 28.2929 19.084 28.4818 18.9248 28.641C18.7656 28.8002 18.5766 28.9265 18.3686 29.0126C18.1607 29.0988 17.9377 29.1431 17.7126 29.1431H12.5698C12.1151 29.1431 11.6791 28.9625 11.3576 28.641C11.0361 28.3195 10.8555 27.8835 10.8555 27.4289V22.286C10.8555 22.0609 10.8998 21.838 10.986 21.63C11.0721 21.422 11.1984 21.233 11.3576 21.0738C11.5168 20.9146 11.7057 20.7884 11.9137 20.7022C12.1217 20.616 12.3446 20.5717 12.5698 20.5717H19.4269ZM24.8555 10.8574C25.9921 10.8574 27.0822 11.309 27.8859 12.1127C28.6897 12.9164 29.1412 14.0065 29.1412 15.1431C29.1412 16.2798 28.6897 17.3699 27.8859 18.1736C27.0822 18.9773 25.9921 19.4289 24.8555 19.4289C23.7188 19.4289 22.6287 18.9773 21.825 18.1736C21.0213 17.3699 20.5698 16.2798 20.5698 15.1431C20.5698 14.0065 21.0213 12.9164 21.825 12.1127C22.6287 11.309 23.7188 10.8574 24.8555 10.8574ZM27.4269 20.5717C27.652 20.5717 27.8749 20.616 28.0829 20.7022C28.2909 20.7884 28.4799 20.9146 28.6391 21.0738C28.7983 21.233 28.9245 21.422 29.0107 21.63C29.0968 21.838 29.1412 22.0609 29.1412 22.286V27.4289C29.1412 27.654 29.0968 27.8769 29.0107 28.0849C28.9245 28.2929 28.7983 28.4818 28.6391 28.641C28.4799 28.8002 28.2909 28.9265 28.0829 29.0126C27.8749 29.0988 27.652 29.1431 27.4269 29.1431H22.284C22.0589 29.1431 21.836 29.0988 21.628 29.0126C21.42 28.9265 21.231 28.8002 21.0719 28.641C20.9127 28.4818 20.7864 28.2929 20.7002 28.0849C20.6141 27.8769 20.5698 27.654 20.5698 27.4289V20.5717H27.4269Z" fill="white"/>
</g>
</g>
</svg>
