<svg width="200" height="200" viewBox="0 0 200 200" fill="none" xmlns="http://www.w3.org/2000/svg">
<mask id="mask0_415_5" style="mask-type:alpha" maskUnits="userSpaceOnUse" x="18" y="18" width="164" height="164">
<path d="M70.7863 18.0391H129.21C164.375 18.0391 181.958 35.6215 181.958 70.7863V129.21C181.958 164.375 164.375 181.958 129.21 181.958H70.7863C35.6215 181.958 18.0391 164.375 18.0391 129.21V70.7863C18.0391 35.6215 35.6215 18.0391 70.7863 18.0391Z" fill="#0684B9"/>
</mask>
<g mask="url(#mask0_415_5)">
<mask id="mask1_415_5" style="mask-type:luminance" maskUnits="userSpaceOnUse" x="18" y="18" width="164" height="164">
<path d="M168.88 18H31.12C23.874 18 18 23.874 18 31.12V168.88C18 176.126 23.874 182 31.12 182H168.88C176.126 182 182 176.126 182 168.88V31.12C182 23.874 176.126 18 168.88 18Z" fill="white"/>
</mask>
<g mask="url(#mask1_415_5)">
<path d="M168.88 18H31.12C23.874 18 18 23.874 18 31.12V168.88C18 176.126 23.874 182 31.12 182H168.88C176.126 182 182 176.126 182 168.88V31.12C182 23.874 176.126 18 168.88 18Z" fill="#54FFF5"/>
<g filter="url(#filter0_f_415_5)">
<path d="M26.6354 145.237C-0.78856 222.392 145.907 200.6 222.683 180.06C301.261 153.983 246.95 39.0346 190.593 36.4906C134.236 33.9466 197.58 89.6424 149.709 105.55C101.837 121.457 60.9153 48.7923 26.6354 145.237Z" fill="white"/>
</g>
<g filter="url(#filter1_f_415_5)">
<path d="M72.7794 -11.3499C58.3937 -50.6546 7.15963 2.63318 -16.6592 34.1902C-39.3793 68.5172 19.9262 98.1806 43.1882 82.0916C66.4503 66.0026 22.9788 62.8722 36.814 41.9509C50.6491 21.0294 90.7614 37.781 72.7794 -11.3499Z" fill="#00FFF0" fill-opacity="0.67"/>
</g>
<g filter="url(#filter2_f_415_5)">
<path d="M79.8052 162.416C60.1833 96.3926 -24.3357 131.162 -64.1424 156.799C-102.433 187.156 -11.5163 274.477 26.2444 270.009C64.0051 265.543 -4.04713 227.53 19.2709 209.019C42.5889 190.509 104.333 244.945 79.8052 162.416Z" fill="#9D81FF"/>
</g>
<g filter="url(#filter3_f_415_5)">
<path d="M198.731 -50.7697C156.403 -101.173 95.8095 -59.4931 70.804 -32.3528C48.923 -1.62842 161.674 54.6671 192.966 45.0194C224.258 35.3716 150.294 15.4086 163.61 -3.32178C176.926 -22.0521 251.641 12.2341 198.731 -50.7697Z" fill="#4D94FF"/>
</g>
<path fill-rule="evenodd" clip-rule="evenodd" d="M77.6981 115.911H105.555L73.8669 84.0171L105.963 52.1237L114.705 43.625H85.7894L48.9641 80.6386C47.1056 82.5042 47.1151 85.5228 48.9831 87.3789L77.6981 115.911ZM94.4447 84.0913H94.2303L94.4423 84.089L94.4447 84.0913ZM94.4447 84.0913L126.131 115.982L94.0349 147.876L85.2931 156.374H114.208L151.033 119.363C152.892 117.498 152.882 114.479 151.015 112.623L122.3 84.0913H94.4447Z" fill="black"/>
</g>
</g>
<defs>
<filter id="filter0_f_415_5" x="-34.4268" y="-21.2862" width="354.104" height="278.428" filterUnits="userSpaceOnUse" color-interpolation-filters="sRGB">
<feFlood flood-opacity="0" result="BackgroundImageFix"/>
<feBlend mode="normal" in="SourceGraphic" in2="BackgroundImageFix" result="shape"/>
<feGaussianBlur stdDeviation="28.8462" result="effect1_foregroundBlur_415_5"/>
</filter>
<filter id="filter1_f_415_5" x="-79.4444" y="-82.9463" width="214.473" height="227.229" filterUnits="userSpaceOnUse" color-interpolation-filters="sRGB">
<feFlood flood-opacity="0" result="BackgroundImageFix"/>
<feBlend mode="normal" in="SourceGraphic" in2="BackgroundImageFix" result="shape"/>
<feGaussianBlur stdDeviation="28.8462" result="effect1_foregroundBlur_415_5"/>
</filter>
<filter id="filter2_f_415_5" x="-131.058" y="66.7217" width="274.213" height="261.147" filterUnits="userSpaceOnUse" color-interpolation-filters="sRGB">
<feFlood flood-opacity="0" result="BackgroundImageFix"/>
<feBlend mode="normal" in="SourceGraphic" in2="BackgroundImageFix" result="shape"/>
<feGaussianBlur stdDeviation="28.8462" result="effect1_foregroundBlur_415_5"/>
</filter>
<filter id="filter3_f_415_5" x="10.3154" y="-132.13" width="264.822" height="235.939" filterUnits="userSpaceOnUse" color-interpolation-filters="sRGB">
<feFlood flood-opacity="0" result="BackgroundImageFix"/>
<feBlend mode="normal" in="SourceGraphic" in2="BackgroundImageFix" result="shape"/>
<feGaussianBlur stdDeviation="28.8462" result="effect1_foregroundBlur_415_5"/>
</filter>
</defs>
</svg>
