<svg width="32" height="32" viewBox="0 0 32 32" fill="none" xmlns="http://www.w3.org/2000/svg">
<g id="Group 1000001268">
<g id="&#231;&#188;&#150;&#231;&#187;&#132; 4&#229;&#164;&#135;&#228;&#187;&#189;">
<g id="&#231;&#174;&#173;&#229;&#164;&#180;">
<path id="&#232;&#183;&#175;&#229;&#190;&#132;" d="M15.9793 31.0449C11.0001 30.9768 6.87721 30.112 4.41834 27.5836C1.88994 25.1247 1.0252 21.0019 0.957031 16.0227C1.0252 11.0434 1.88994 6.92057 4.41834 4.46169C6.87721 1.9333 11.0001 1.06856 15.9793 1.00039C20.9585 1.06856 25.0814 1.9333 27.5403 4.46169C30.0687 6.92057 30.9334 11.0434 31.0016 16.0227C30.9334 21.0019 30.0687 25.1247 27.5403 27.5836C25.0814 30.112 20.9585 30.9768 15.9793 31.0449Z" fill="url(#paint0_radial_603_10)" stroke="#DCEBFF" stroke-width="0.625237"/>
</g>
</g>
<g id="_&#229;&#144;&#145;&#228;&#184;&#139;&#231;&#174;&#173;&#229;&#164;&#180;&#231;&#178;&#151;&#229;&#176;&#143; 1">
<path id="Vector" d="M17.5008 18.25V8.50004C17.5008 8.08379 17.1618 7.75004 16.7433 7.75004H15.2583C15.1592 7.74905 15.0609 7.76771 14.969 7.80496C14.8771 7.84221 14.7936 7.8973 14.7231 7.96704C14.6527 8.03678 14.5968 8.1198 14.5586 8.21128C14.5204 8.30277 14.5008 8.40091 14.5008 8.50004V18.25H13.0076C12.1773 18.25 11.9036 18.787 12.4001 19.45L15.1008 23.05C15.6018 23.7175 16.4036 23.713 16.9008 23.05L19.6008 19.45C20.1018 18.7825 19.8258 18.25 18.9941 18.25H17.5008Z" fill="#277FFA"/>
</g>
</g>
<defs>
<radialGradient id="paint0_radial_603_10" cx="0" cy="0" r="1" gradientUnits="userSpaceOnUse" gradientTransform="translate(15.9793 16.0227) scale(48.6675)">
<stop stop-color="white"/>
<stop offset="1" stop-color="#E2ECFF"/>
</radialGradient>
</defs>
</svg>
