<svg width="15" height="10" viewBox="0 0 15 10" fill="none" xmlns="http://www.w3.org/2000/svg">
<g id="jinru">
<path id="&#232;&#183;&#175;&#229;&#190;&#132;" d="M7.3486 9.8734L14.1416 0.484257C14.2086 0.391165 14.2179 0.268377 14.1656 0.166281C14.1133 0.0641857 14.0082 -2.37164e-05 13.8935 3.31884e-06L12.1037 3.24061e-06C11.7144 3.22359e-06 11.3444 0.186829 11.115 0.503687L7.1005 6.05317L3.08523 0.503686C2.85587 0.186531 2.48794 -0.000911867 2.09654 2.80318e-06L0.306746 2.72495e-06C0.0586405 2.7141e-06 -0.0863371 0.282484 0.0586395 0.484256L6.85164 9.8734C6.90943 9.95293 7.00181 10 7.10012 10C7.19844 10 7.29081 9.95293 7.3486 9.8734Z" fill="#8F98AE"/>
</g>
</svg>
