<svg width="15" height="10" viewBox="0 0 15 10" fill="none" xmlns="http://www.w3.org/2000/svg">
<g id="jinru">
<path id="&#232;&#183;&#175;&#229;&#190;&#132;" d="M6.85062 0.126602L0.0576157 9.51574C-0.00941845 9.60883 -0.0186823 9.73162 0.0336258 9.83372C0.085934 9.93581 0.191006 10 0.305721 10L2.09552 10C2.48486 10 2.85478 9.81317 3.0842 9.49631L7.09872 3.94683L11.114 9.49631C11.3433 9.81347 11.7113 10.0009 12.1027 10L13.8925 10C14.1406 10 14.2856 9.71752 14.1406 9.51574L7.34758 0.126602C7.28979 0.0470649 7.19741 8.58283e-08 7.0991 8.46559e-08C7.00078 8.34835e-08 6.90841 0.0470649 6.85062 0.126602Z" fill="#8F98AE"/>
</g>
</svg>
