<svg width="18" height="18" viewBox="0 0 18 18" fill="none" xmlns="http://www.w3.org/2000/svg">
<g id="bolt-slash">
<path id="bolt-slash_2" d="M14.6296 7.49456C14.6333 7.79456 14.5156 8.07956 14.2981 8.29706L6.57306 16.0146C6.50031 16.0873 6.40431 16.1241 6.30756 16.1241C6.23931 16.1241 6.17034 16.1053 6.10884 16.0671C5.96109 15.9748 5.89659 15.7926 5.95284 15.6276L6.50783 14.0151C6.52583 13.9611 6.55659 13.9123 6.59709 13.8718L13.7596 6.70931C13.9036 6.56606 14.1354 6.56306 14.2824 6.70256C14.4991 6.90656 14.6251 7.19606 14.6296 7.49456ZM16.1476 1.85231C15.9279 1.63256 15.5716 1.63256 15.3518 1.85231L11.7961 5.40806L12.6443 3.45056C12.7943 3.09806 12.7568 2.70057 12.5468 2.37807C12.3368 2.06307 11.9843 1.87557 11.6093 1.87557H8.25008C7.61258 1.87557 7.09508 2.27306 6.89258 2.88806L4.92758 7.89807C4.82258 8.24307 4.88256 8.61806 5.09256 8.91056C5.31006 9.21056 5.64008 9.37557 6.00008 9.37557L7.86908 9.33581L1.85182 15.3531C1.63207 15.5728 1.63207 15.9291 1.85182 16.1488C1.96132 16.2583 2.10535 16.3138 2.24935 16.3138C2.39335 16.3138 2.53732 16.2591 2.64682 16.1488L16.1468 2.64881C16.3673 2.42831 16.3674 2.07131 16.1476 1.85231Z" fill="#3291FF"/>
</g>
</svg>
