<svg width="42" height="42" viewBox="0 0 42 42" fill="none" xmlns="http://www.w3.org/2000/svg">
<g id="&#229;&#133;&#179;&#233;&#151;&#173;2-fill (1) 1">
<path id="Vector" d="M21 2.625C10.8688 2.625 2.625 10.8675 2.625 21C2.625 31.1325 10.8675 39.375 21 39.375C31.1312 39.375 39.375 31.1325 39.375 21C39.375 10.8675 31.1325 2.625 21 2.625ZM28.4957 26.6595C29.0076 27.174 29.0062 28.0035 28.4931 28.5154C28.2372 28.77 27.9025 28.8986 27.5665 28.8986C27.2292 28.8986 26.8932 28.77 26.6372 28.5128L20.9934 22.8519L15.3313 28.4537C15.0754 28.7057 14.742 28.833 14.4086 28.833C14.07 28.833 13.7327 28.7031 13.4754 28.4432C12.9662 27.9274 12.9701 27.0979 13.486 26.5873L19.1415 20.9934L13.5069 15.3405C12.995 14.8273 12.9964 13.9965 13.5095 13.4846C14.0227 12.9714 14.8522 12.9741 15.3654 13.4872L21.0078 19.1467L26.6699 13.545C27.1844 13.0345 28.0166 13.0397 28.5258 13.5555C29.0364 14.0714 29.0311 14.9021 28.5153 15.4114L22.8598 21.0052L28.4957 26.6595Z" fill="#E01B00"/>
</g>
</svg>
