<svg width="618" height="274" viewBox="0 0 618 274" fill="none" xmlns="http://www.w3.org/2000/svg">
<g id="Group">
<g id="Group_2">
<path id="Vector" d="M447.52 177.785C435.119 177.785 414.622 177.785 402.231 177.785C401.974 167.537 409.946 160.136 417.413 160.612C422.785 160.955 427.833 165.365 429.862 171.566C436.557 167.451 440.139 165.717 443.548 167.832C446.958 169.946 448.796 175.918 447.52 177.785Z" fill="white"/>
<path id="Vector_2" d="M283.058 265.026C278.401 260.369 278.401 252.818 283.058 248.162C287.714 243.505 295.265 243.505 299.922 248.162C304.578 252.818 304.578 260.369 299.922 265.026C295.265 269.682 287.714 269.682 283.058 265.026Z" fill="#2882FF"/>
<g id="Group_3">
<path id="Vector_3" d="M346.398 57.8806C325.378 57.8806 304.357 57.8806 283.336 57.8806C283.575 44.8034 293.813 35.6788 303.29 36.3932C309.938 36.898 316.063 42.2317 318.825 49.6418C323.33 44.9939 330.092 43.3747 336.036 45.5272C344.494 48.5941 346.322 57.471 346.398 57.8806Z" fill="white"/>
<g id="Group_4">
<g id="Group_5">
<g id="Group_6">
<path id="Vector_4" d="M617.076 233.837C602.427 254.61 566.387 242.809 566.387 242.809C566.387 242.809 566.577 242.609 566.958 242.257C582.854 234.37 616.629 233.847 617.076 233.837Z" fill="#00593B"/>
<path id="Vector_5" d="M617.066 233.837C616.628 233.847 582.854 234.38 566.958 242.257C570.568 238.885 590.931 221.608 617.066 233.837Z" fill="#127755"/>
<path id="Vector_6" d="M550.291 254.896C550.291 254.896 550.015 252.315 564.949 243.343C565.578 242.962 566.244 242.6 566.949 242.257" stroke="#1A1A1A" stroke-width="3" stroke-miterlimit="10" stroke-linecap="round" stroke-linejoin="round"/>
</g>
<path id="Vector_7" d="M580.197 234.875L574.987 239.399" stroke="#1A1A1A" stroke-width="2" stroke-miterlimit="10" stroke-linecap="round" stroke-linejoin="round"/>
<path id="Vector_8" d="M586.798 232.418L582.931 237.552" stroke="#1A1A1A" stroke-width="2" stroke-miterlimit="10" stroke-linecap="round" stroke-linejoin="round"/>
<path id="Vector_9" d="M595.39 230.608L591.332 235.894" stroke="#1A1A1A" stroke-width="2" stroke-miterlimit="10" stroke-linecap="round" stroke-linejoin="round"/>
<path id="Vector_10" d="M601.607 231.304L598.617 235.009" stroke="#1A1A1A" stroke-width="2" stroke-miterlimit="10" stroke-linecap="round" stroke-linejoin="round"/>
<path id="Vector_11" d="M604.161 239.542C603.98 239.342 598.618 235.009 598.618 235.009" stroke="white" stroke-width="2" stroke-miterlimit="10" stroke-linecap="round" stroke-linejoin="round"/>
<path id="Vector_12" d="M591.407 235.79L599.17 243.104" stroke="white" stroke-width="2" stroke-miterlimit="10" stroke-linecap="round" stroke-linejoin="round"/>
<path id="Vector_13" d="M583.302 237.228L590.864 244.505" stroke="white" stroke-width="2" stroke-miterlimit="10" stroke-linecap="round" stroke-linejoin="round"/>
<path id="Vector_14" d="M575.301 239.123L580.777 243.838" stroke="white" stroke-width="2" stroke-miterlimit="10" stroke-linecap="round" stroke-linejoin="round"/>
</g>
<g id="Group_7">
<g id="Group_8">
<path id="Vector_15" d="M609.961 179.166C609.961 179.166 571.863 206.159 559.909 228.246C561.395 221.36 571.082 184.433 609.961 179.166Z" fill="#127755"/>
<path id="Vector_16" d="M609.961 179.166C609.389 215.902 559.7 229.351 559.7 229.351C559.7 229.351 559.767 228.961 559.919 228.246C571.863 206.159 609.961 179.166 609.961 179.166Z" fill="#00593B"/>
<path id="Vector_17" d="M550.842 256.591C550.842 256.591 548.547 253.658 558.5 231.123C558.919 230.18 559.395 229.218 559.919 228.246" stroke="#1A1A1A" stroke-width="3" stroke-miterlimit="10" stroke-linecap="round" stroke-linejoin="round"/>
</g>
<path id="Vector_18" d="M582.082 202.006L582.521 193.415" stroke="#1A1A1A" stroke-width="2" stroke-miterlimit="10" stroke-linecap="round" stroke-linejoin="round"/>
<path id="Vector_19" d="M587.979 196.672L588.855 188.424" stroke="#1A1A1A" stroke-width="2" stroke-miterlimit="10" stroke-linecap="round" stroke-linejoin="round"/>
<path id="Vector_20" d="M568.652 209.426C568.652 209.426 566.09 215.074 565.119 220.284" stroke="#1A1A1A" stroke-width="2" stroke-miterlimit="10" stroke-linecap="round" stroke-linejoin="round"/>
<path id="Vector_21" d="M575.749 202.663L573.53 209.978" stroke="#1A1A1A" stroke-width="2" stroke-miterlimit="10" stroke-linecap="round" stroke-linejoin="round"/>
<path id="Vector_22" d="M604.78 192.177L596.189 189.748" stroke="white" stroke-width="2" stroke-miterlimit="10" stroke-linecap="round" stroke-linejoin="round"/>
<path id="Vector_23" d="M600.864 200.796L588.206 196.472" stroke="white" stroke-width="2" stroke-miterlimit="10" stroke-linecap="round" stroke-linejoin="round"/>
<path id="Vector_24" d="M582.253 201.835L595.111 207.483" stroke="white" stroke-width="2" stroke-miterlimit="10" stroke-linecap="round" stroke-linejoin="round"/>
<path id="Vector_25" d="M573.577 210.13L586.33 214.264" stroke="white" stroke-width="2" stroke-miterlimit="10" stroke-linecap="round" stroke-linejoin="round"/>
<path id="Vector_26" d="M565.329 220.017L574.13 222.131" stroke="white" stroke-width="2" stroke-miterlimit="10" stroke-linecap="round" stroke-linejoin="round"/>
</g>
<g id="Group_9">
<g id="Group_10">
<path id="Vector_27" d="M513.42 174.823C513.42 174.823 516.249 207.292 525.345 222.274C521.716 218.96 502.895 200.101 513.42 174.823Z" fill="#127755"/>
<path id="Vector_28" d="M513.421 174.823C535.356 188.11 525.936 222.798 525.936 222.798C525.936 222.798 525.727 222.617 525.346 222.274C516.25 207.292 513.421 174.823 513.421 174.823Z" fill="#339E7E"/>
<path id="Vector_29" d="M539.223 237.733C539.223 237.733 536.651 238.076 526.584 224.141C526.164 223.551 525.745 222.931 525.355 222.274" stroke="#1A1A1A" stroke-width="3" stroke-miterlimit="10" stroke-linecap="round" stroke-linejoin="round"/>
</g>
<path id="Vector_30" d="M517.344 199.673L512.334 196.377" stroke="#1A1A1A" stroke-width="2" stroke-miterlimit="10" stroke-linecap="round" stroke-linejoin="round"/>
<path id="Vector_31" d="M516.221 194.244L511.563 190.805" stroke="#1A1A1A" stroke-width="2" stroke-miterlimit="10" stroke-linecap="round" stroke-linejoin="round"/>
<path id="Vector_32" d="M517.087 210.378C517.087 210.378 519.583 213.912 522.383 216.331" stroke="#1A1A1A" stroke-width="2" stroke-miterlimit="10" stroke-linecap="round" stroke-linejoin="round"/>
<path id="Vector_33" d="M515.515 203.72L519.144 207.635" stroke="#1A1A1A" stroke-width="2" stroke-miterlimit="10" stroke-linecap="round" stroke-linejoin="round"/>
<path id="Vector_34" d="M519.431 182.538L514.945 186.852" stroke="#1A1A1A" stroke-width="2" stroke-miterlimit="10" stroke-linecap="round" stroke-linejoin="round"/>
<path id="Vector_35" d="M523.249 187.929L516.182 194.034" stroke="#1A1A1A" stroke-width="2" stroke-miterlimit="10" stroke-linecap="round" stroke-linejoin="round"/>
<path id="Vector_36" d="M517.315 199.511L525.239 193.758" stroke="#1A1A1A" stroke-width="2" stroke-miterlimit="10" stroke-linecap="round" stroke-linejoin="round"/>
<path id="Vector_37" d="M519.249 207.664L526.23 201.435" stroke="#1A1A1A" stroke-width="2" stroke-miterlimit="10" stroke-linecap="round" stroke-linejoin="round"/>
<path id="Vector_38" d="M522.297 216.121L526.669 211.559" stroke="#1A1A1A" stroke-width="2" stroke-miterlimit="10" stroke-linecap="round" stroke-linejoin="round"/>
</g>
<g id="Group_11">
<g id="Group_12">
<path id="Vector_39" d="M586.329 125.067C586.329 125.067 552.907 175.032 548.679 207.073C547.298 198.11 541.992 149.259 586.329 125.067Z" fill="#127755"/>
<path id="Vector_40" d="M586.33 125.067C602.522 169.508 548.927 208.502 548.927 208.502C548.927 208.502 548.822 207.997 548.679 207.073C552.908 175.023 586.33 125.067 586.33 125.067Z" fill="#339E7E"/>
<path id="Vector_41" d="M550.784 245.324C550.784 245.324 546.679 242.847 548.298 211.178C548.365 209.845 548.498 208.473 548.679 207.073" stroke="#1A1A1A" stroke-width="3" stroke-miterlimit="10" stroke-linecap="round" stroke-linejoin="round"/>
</g>
<path id="Vector_42" d="M563.281 165.337L559.871 154.802" stroke="#1A1A1A" stroke-width="2" stroke-miterlimit="10" stroke-linecap="round" stroke-linejoin="round"/>
<path id="Vector_43" d="M567.929 156.222L565.205 145.897" stroke="#1A1A1A" stroke-width="2" stroke-miterlimit="10" stroke-linecap="round" stroke-linejoin="round"/>
<path id="Vector_44" d="M550.547 180.433C550.547 180.433 550.061 188.395 551.29 195.11" stroke="#1A1A1A" stroke-width="2" stroke-miterlimit="10" stroke-linecap="round" stroke-linejoin="round"/>
<path id="Vector_45" d="M555.976 169.042L556.671 178.852" stroke="#1A1A1A" stroke-width="2" stroke-miterlimit="10" stroke-linecap="round" stroke-linejoin="round"/>
<path id="Vector_46" d="M586.064 143.097L574.635 144.116L574.016 138.125" stroke="#1A1A1A" stroke-width="2" stroke-miterlimit="10" stroke-linecap="round" stroke-linejoin="round"/>
<path id="Vector_47" d="M585.321 155.26L568.12 155.869" stroke="#1A1A1A" stroke-width="2" stroke-miterlimit="10" stroke-linecap="round" stroke-linejoin="round"/>
<path id="Vector_48" d="M563.415 165.06L581.474 165.937" stroke="#1A1A1A" stroke-width="2" stroke-miterlimit="10" stroke-linecap="round" stroke-linejoin="round"/>
<path id="Vector_49" d="M556.786 179.014L574.016 178.128" stroke="#1A1A1A" stroke-width="2" stroke-miterlimit="10" stroke-linecap="round" stroke-linejoin="round"/>
<path id="Vector_50" d="M551.404 194.701L562.957 193.186" stroke="#1A1A1A" stroke-width="2" stroke-miterlimit="10" stroke-linecap="round" stroke-linejoin="round"/>
</g>
</g>
<path id="Vector_51" d="M585.321 258.525C585.045 257.696 581.892 248.781 572.682 246.143C565.929 244.209 560.31 246.924 558.976 247.61C559.405 246.305 562.967 234.866 556.976 227.513C550.347 219.369 533.641 218.255 520.507 229.78C519.069 228.113 515.964 225.036 511.458 224.455C503.372 223.417 497.248 231.237 494.952 234.17C488.114 242.914 492.59 258.629 492.59 258.629C492.59 258.629 553.071 257.944 585.321 258.525Z" fill="#D1E4FF"/>
<path id="Vector_52" d="M541.575 83.9235C541.766 70.9892 551.69 63.1029 558.453 64.2172C561.815 64.7697 565.168 67.6746 567.282 71.9797C570.501 68.0556 575.083 65.8364 579.473 66.1698C584.96 66.5888 590.027 70.9892 592.303 77.1135C596.027 73.2751 601.608 71.9416 606.523 73.7132C613.505 76.2372 615.019 83.5711 615.076 83.914C597.713 83.914 580.35 83.914 562.996 83.914C555.853 83.9235 548.709 83.9235 541.575 83.9235Z" fill="white"/>
<path id="Vector_53" d="M174.698 98.4209C174.508 85.4865 164.583 77.6002 157.821 78.7146C154.459 79.267 151.106 82.172 148.991 86.4771C145.772 82.553 141.191 80.3337 136.8 80.6671C131.314 81.0862 126.247 85.4865 123.97 91.6108C120.246 87.7724 114.665 86.439 109.75 88.2105C102.769 90.7345 101.254 98.0685 101.197 98.4113C118.561 98.4113 135.924 98.4113 153.277 98.4113C160.421 98.4209 167.564 98.4209 174.698 98.4209Z" fill="white"/>
<path id="Vector_54" d="M356.236 208.711C326.468 208.711 302.337 184.575 302.337 154.802C302.337 125.029 326.468 100.893 356.236 100.893C386.004 100.893 410.136 125.029 410.136 154.802C410.136 184.575 386.004 208.711 356.236 208.711Z" fill="#80590A"/>
<path id="Vector_55" d="M486.142 248.857C485.675 248.629 485.228 248.381 484.78 248.124C487.247 247.324 489.152 246.81 489.152 246.81H497.229C497.229 246.81 498.61 247.81 499.505 249.619C495.009 250.581 490.209 251.257 486.142 248.857Z" fill="white"/>
<path id="Vector_56" d="M475.227 252.162C477.38 250.686 481.561 249.162 484.771 248.124C485.218 248.372 485.666 248.619 486.133 248.857C490.2 251.258 495 250.581 499.486 249.619C499.886 250.429 500.191 251.4 500.229 252.515C500.353 256.125 499.8 258.601 499.8 258.601H472.827C472.836 258.601 471.427 254.772 475.227 252.162Z" fill="#1A1A1A"/>
<path id="Vector_57" d="M427.5 252.067C431.043 250.696 439.863 247.286 439.863 247.286L441.482 246.619C444.377 249.248 448.597 250.41 452.597 249.667C452.673 249.895 452.759 250.143 452.835 250.41C453.74 253.543 451.816 257.791 451.816 257.791H423.071C423.071 257.791 423.957 253.439 427.5 252.067Z" fill="#1A1A1A"/>
<path id="Vector_58" d="M441.482 246.619L445.92 244.781L450.682 246.4C450.682 246.4 451.73 247.133 452.597 249.667C448.596 250.419 444.377 249.257 441.482 246.619Z" fill="white"/>
<path id="Vector_59" d="M494.057 237.447C494.752 234.418 495.219 231.161 495.457 228.132C496.152 219.522 494.99 210.902 497.781 202.987C502.438 188.319 502.905 173.651 504.296 158.526C504.467 156.793 504.772 154.802 505.391 152.945L513.087 155.745C513.087 155.745 504.21 192.615 505.182 199.425C506.153 206.225 499.848 247.81 499.848 247.81C497.714 248.314 495.638 248.686 493.647 248.838C493.533 245.095 493.466 241.314 494.057 237.447Z" fill="#102140"/>
<path id="Vector_60" d="M494.096 148.821L505.401 152.945C504.782 154.812 504.477 156.803 504.306 158.527C502.906 173.661 502.439 188.329 497.791 202.987C495.001 210.902 496.163 219.512 495.467 228.132C495.239 231.161 494.772 234.418 494.067 237.447C493.467 241.314 493.543 245.095 493.667 248.829C490.8 249.048 488.124 248.8 485.733 247.8L485.571 177.747L494.096 148.821Z" fill="#152A52"/>
<path id="Vector_61" d="M500.353 166.356C500.019 169.232 491.438 179.69 485.57 185.481C485.856 179.614 485.57 179.728 485.57 179.728L500.353 166.356Z" fill="#1A1A1A"/>
<path id="Vector_62" d="M464.027 205.559C465.189 202.53 466.351 199.739 468.218 196.949C469.151 195.32 469.38 193.224 470.313 191.596C475.199 182.519 481.952 173.204 493.591 172.042C493.801 172.013 494.01 171.975 494.22 171.908C487.724 179.395 477.542 191.158 474.39 194.872C469.637 200.463 453.988 247.819 453.988 247.819C452.817 247.933 451.645 247.876 450.483 247.667C453.931 239.361 456.969 230.942 458.893 221.636C460.065 216.026 462.16 210.912 464.027 205.559Z" fill="#102140"/>
<path id="Vector_63" d="M454.806 190.015C459.368 183.033 479.818 139.716 479.818 139.716L502.248 152.812L502.896 165.298L495.733 170.746C495.504 171.013 494.466 171.632 494.228 171.908C494.009 171.966 493.8 172.013 493.6 172.042C481.961 173.204 475.208 182.519 470.322 191.596C469.388 193.224 469.16 195.32 468.226 196.949C466.359 199.739 465.197 202.539 464.035 205.559C462.169 210.912 460.073 216.036 458.911 221.617C456.987 230.923 453.949 239.352 450.501 247.648C448.491 247.276 446.51 246.409 444.558 245.028C444.548 245.038 450.244 196.996 454.806 190.015Z" fill="#152A52"/>
<path id="Vector_64" d="M512.01 160.365C512.01 160.365 508.419 161.717 501.285 157.869C494.151 154.021 478.407 142.449 478.407 142.449L480.95 138.887L513.753 156.222L512.01 160.365Z" fill="#1A1A1A"/>
<path id="Vector_65" d="M496.781 101.522C497.305 103.217 497.619 104.265 497.619 104.265L513.097 98.2837L506.772 108.627C506.772 108.627 497.895 114.99 491.295 114.075C487.809 113.59 484.971 103.779 483.066 94.6168C486.676 98.7028 491.666 101.379 496.781 101.522Z" fill="#0057CF"/>
<path id="Vector_66" d="M501.544 102.751C501.544 102.751 496.258 107.713 494.82 111.361C494.705 114.352 494.429 114.514 494.705 114.352C494.981 114.19 504.706 101.532 504.706 101.532L501.544 102.751Z" fill="#76AFFF"/>
<path id="Vector_67" d="M486.494 75.92C489.503 78.7869 494.751 94.9787 496.771 101.522C491.656 101.379 486.665 98.7028 483.055 94.6167C481.35 86.4256 480.388 78.7584 480.388 78.7584C480.388 78.7584 481.045 77.4535 486.494 75.92Z" fill="#2882FF"/>
<path id="Vector_68" d="M474.732 67.9671C473.579 67.5861 474.17 65.4431 473.227 64.1954C473.827 63.9382 474.417 63.9382 474.417 63.9382L473.103 61.4713C473.103 61.4713 475.751 60.9856 479.418 65.1859C483.085 69.3862 486.085 76.9392 486.085 76.9392C485.837 77.844 485.485 78.4536 485.085 78.8536C483.218 74.1199 479.484 70.5387 474.732 67.9671Z" fill="#FC9590"/>
<path id="Vector_69" d="M471.96 65.9955C471.998 64.9669 472.618 64.443 473.227 64.1954C474.17 65.4526 473.58 67.5861 474.732 67.9671C479.475 70.5388 483.218 74.12 485.095 78.8537C483.657 80.2824 481.609 78.9966 481.609 78.9966L479.428 73.9104C479.428 73.9104 477.046 72.4532 475.637 72.5389C474.227 72.6246 471.884 68.0624 471.96 65.9955Z" fill="#DB6767"/>
<path id="Vector_70" d="M611.989 258.487H303.175" stroke="#1A1A1A" stroke-width="3" stroke-miterlimit="10" stroke-linecap="round" stroke-linejoin="round"/>
<path id="Vector_71" d="M516.145 94.893C516.145 94.893 526.279 89.5021 530.098 95.9788C532.612 100.236 532.565 109.361 530.641 119.314C525.336 122.133 522.04 128.277 517.802 132.686C514.773 135.715 511.754 138.506 507.563 139.668C498.286 141.859 488.438 140.049 481.056 135.001C486.304 122.648 503.229 96.5026 516.145 94.893Z" fill="#2882FF"/>
<path id="Vector_72" d="M522.393 105.551C522.393 105.551 519.688 99.2933 506.172 115.237C503.734 119.314 501.839 119.314 501.839 119.314C501.839 119.314 497.972 115.114 494.343 109.132C493.381 107.551 493.095 118.828 493.095 118.828L502.391 125.067C502.391 125.067 521.393 111.189 522.393 105.551Z" fill="#76AFFF"/>
<path id="Vector_73" d="M507.563 139.677C511.753 138.515 514.782 135.715 517.802 132.696C522.04 128.286 525.335 122.143 530.641 119.323C529.526 125.114 527.774 131.191 525.516 136.753C515.744 161.031 515.811 157.393 510.658 158.555C505.505 159.717 481.799 144.64 479.58 141.154C479.132 140.439 479.703 138.182 481.056 135.01C488.437 140.058 498.276 141.868 507.563 139.677Z" fill="#0057CF"/>
<path id="Vector_74" d="M495.837 116.257C495.837 116.257 476.474 1 359.055 1V1.62862C359.055 1.62862 466.559 -5.45765 493.561 117.209C500.847 113.285 495.837 116.257 495.837 116.257Z" fill="#1A1A1A"/>
<path id="Vector_75" d="M491.372 101.779C492.162 101.941 493.01 102.398 493.334 102.475C493.924 102.608 494.115 104.522 494.439 105.808C494.762 107.103 493.334 110.142 493.334 110.142L493.038 110.408C491.172 107.637 489.41 104.379 491.372 101.779Z" fill="#FC9590"/>
<path id="Vector_76" d="M489.857 102.475C490.047 101.722 490.686 101.646 491.371 101.779C489.4 104.379 491.162 107.627 493.038 110.408L490.857 112.38C490.857 112.38 490.076 108.532 489.619 107.665C489.162 106.808 489.457 104.094 489.857 102.475Z" fill="#DB6767"/>
<path id="Vector_77" d="M507.563 128.496C505.001 130.362 500.81 131.524 498.486 129.429C496.162 127.334 494.524 124.305 493.829 120.819C493.257 117.019 493 113.218 491.657 109.666C492.334 109.246 493.21 109.008 494.353 109.132C497.696 115.523 502.487 121.047 502.487 121.047C502.487 121.047 507.363 113.942 512.402 109.713C522.022 100.97 525.85 102.77 526.46 110.437C526.412 110.504 526.069 111.151 525.479 112.199C518.993 116.895 514.516 123.648 507.563 128.496Z" fill="#2882FF"/>
<path id="Vector_78" d="M489.409 113.637C489.409 113.637 489.695 110.885 491.657 109.666C493 113.209 493.257 117.009 493.829 120.819C494.524 124.314 496.153 127.334 498.486 129.429C500.81 131.524 505.001 130.362 507.563 128.496C514.516 123.648 518.993 116.885 525.488 112.199C522.221 117.952 511.382 135.782 501.115 135.287C488.971 134.715 489.409 113.637 489.409 113.637Z" fill="#0057CF"/>
<path id="Vector_79" d="M473.446 61.4618C473.446 61.4618 471.113 61.8428 473.989 63.4619C475.837 64.5001 475.913 65.5097 475.913 65.5097C475.913 65.5097 475.475 67.6146 476.771 68.6433C478.066 69.6719 480.399 69.5481 480.399 69.5481" fill="#FC9590"/>
<path id="Vector_80" d="M359.057 1V95.0454" stroke="#1A1A1A" stroke-width="2" stroke-miterlimit="10" stroke-linecap="round" stroke-linejoin="round"/>
<path id="Vector_81" d="M359.057 208.711C329.289 208.711 305.157 184.575 305.157 154.802C305.157 125.029 329.289 100.893 359.057 100.893C388.824 100.893 412.956 125.029 412.956 154.802C412.956 184.575 388.824 208.711 359.057 208.711Z" fill="#FFDE70"/>
<path id="Vector_82" d="M311.31 154.802C311.31 180.462 331.54 201.387 356.923 202.511C357.627 202.539 358.342 202.558 359.056 202.558C385.42 202.558 406.803 181.176 406.803 154.812C406.803 128.448 385.43 107.065 359.056 107.065C358.342 107.065 357.627 107.084 356.923 107.113C331.54 108.218 311.31 129.153 311.31 154.802Z" fill="#FFB114"/>
<path id="Vector_83" d="M311.309 154.802C311.309 180.462 331.539 201.387 356.922 202.511C382.305 201.396 404.688 180.462 404.688 154.802C404.688 129.143 382.305 108.218 356.922 107.094C331.539 108.218 311.309 129.153 311.309 154.802Z" fill="#FFA73F"/>
<path id="Vector_84" d="M357.837 97.1789H359.056H360.466V92.9881H357.837V97.1789Z" fill="#D1334A"/>
<path id="Vector_85" d="M358.865 97.1789V98.6647C358.865 98.6647 353.417 97.3313 353.417 103.236C353.417 109.142 359.046 107.056 359.046 107.056" stroke="#1A1A1A" stroke-width="2" stroke-miterlimit="10" stroke-linecap="round" stroke-linejoin="round"/>
<path id="Vector_86" d="M517.554 72.2151C525.307 71.7293 524.526 81.5206 524.526 81.5206L525.631 93.2643C523.526 94.5692 521.011 95.0073 518.535 94.9025L517.554 89.9022C517.554 89.9022 513.192 93.9215 511.649 88.302C510.087 82.6825 509.801 72.7008 517.554 72.2151Z" fill="#FC9590"/>
<path id="Vector_87" d="M526.526 86.34L521.535 87.3591C521.535 87.3591 521.535 82.1968 519.754 81.4348C517.973 80.6728 517.725 84.9017 517.725 84.9017H516.201C516.201 84.9017 518.23 79.9966 515.096 78.9775C511.963 77.9583 508.305 70.6816 509.372 68.6529C515.516 70.5197 524.164 70.1958 524.488 74.1581C527.707 75.9296 528.393 81.9396 526.526 86.34Z" fill="#102140"/>
<path id="Vector_88" d="M352.655 194.625V185.348C346.112 185.052 339.769 183.3 336.063 181.147L338.988 169.727C343.083 171.975 348.845 174.023 355.189 174.023C360.751 174.023 364.561 171.88 364.561 167.975C364.561 164.27 361.437 161.927 354.217 159.479C343.778 155.964 336.654 151.088 336.654 141.62C336.654 133.029 342.702 126.295 353.151 124.248V114.971H362.713V123.562C369.257 123.857 373.647 125.219 376.867 126.781L374.038 137.811C371.504 136.734 367.009 134.496 359.98 134.496C353.636 134.496 351.588 137.23 351.588 139.963C351.588 143.182 355.008 145.23 363.304 148.354C374.914 152.45 379.6 157.822 379.6 166.603C379.6 175.29 373.447 182.709 362.227 184.662V194.615H352.655V194.625Z" fill="white"/>
</g>
</g>
<path id="Vector_89" d="M311.872 216.607L303.681 219.445L305.062 223.436L313.263 220.598L311.872 216.607Z" fill="url(#paint0_linear_1011_1751)"/>
<path id="Vector_90" d="M224.289 30.1491L215.642 30.7707L215.943 34.9829L224.599 34.3638L224.289 30.1491Z" fill="url(#paint1_linear_1011_1751)"/>
<path id="Vector_91" d="M254.896 156.841L263.249 167.28L270.145 161.765L261.801 151.326L254.896 156.841Z" fill="url(#paint2_linear_1011_1751)"/>
<path id="Vector_92" d="M0.000114441 108.162L5.41849 115.133L9.8916 111.45L4.47939 104.48L0.000114441 108.162Z" fill="url(#paint3_linear_1011_1751)"/>
<path id="Vector_93" d="M174.912 93.5416L170.048 105.995L178.272 109.21L183.141 96.7644L174.912 93.5416Z" fill="url(#paint4_linear_1011_1751)"/>
<path id="Vector_94" d="M160.909 245.351L169.422 248.676L171.62 243.054L163.112 239.726L160.909 245.351Z" fill="url(#paint5_linear_1011_1751)"/>
<path id="Vector_95" d="M374.628 219.941L376.523 213.931L372.733 212.74L370.837 218.741L374.628 219.941Z" fill="url(#paint6_linear_1011_1751)"/>
<path id="Vector_96" d="M201.619 184.726L203.515 178.716L199.724 177.525L197.828 183.525L201.619 184.726Z" fill="url(#paint7_linear_1011_1751)"/>
<path id="Vector_97" d="M606.409 165.937L609.962 154.688L604.114 152.84L600.561 164.089L606.409 165.937Z" fill="url(#paint8_linear_1011_1751)"/>
<path id="Vector_98" d="M519.764 88.5401L517.545 89.9021L518.193 92.7881C518.193 92.7881 520.259 90.4165 519.764 88.5401Z" fill="#DB6767"/>
<path id="Vector_99" d="M526.793 94.6168L526.469 90.6641C526.469 90.6641 518.745 92.1118 516.84 95.8454C517.507 97.3408 517.507 97.3408 517.507 97.3408C517.507 97.3408 524.298 97.8742 526.793 94.6168Z" fill="white"/>
</g>
<defs>
<linearGradient id="paint0_linear_1011_1751" x1="313.258" y1="220.021" x2="303.685" y2="220.021" gradientUnits="userSpaceOnUse">
<stop stop-color="#4085F0"/>
<stop offset="1" stop-color="#275DC9"/>
</linearGradient>
<linearGradient id="paint1_linear_1011_1751" x1="224.744" y1="33.8054" x2="215.497" y2="31.3276" gradientUnits="userSpaceOnUse">
<stop stop-color="#4085F0"/>
<stop offset="1" stop-color="#275DC9"/>
</linearGradient>
<linearGradient id="paint2_linear_1011_1751" x1="256.456" y1="201.274" x2="264.588" y2="145.015" gradientUnits="userSpaceOnUse">
<stop stop-color="#68B2FC"/>
<stop offset="1" stop-color="#EBF0F7"/>
</linearGradient>
<linearGradient id="paint3_linear_1011_1751" x1="1.0121" y1="137.831" x2="6.5943" y2="100.312" gradientUnits="userSpaceOnUse">
<stop stop-color="#68B2FC"/>
<stop offset="1" stop-color="#EBF0F7"/>
</linearGradient>
<linearGradient id="paint4_linear_1011_1751" x1="137.212" y1="117.109" x2="190" y2="96.0221" gradientUnits="userSpaceOnUse">
<stop stop-color="#68B2FC"/>
<stop offset="1" stop-color="#EBF0F7"/>
</linearGradient>
<linearGradient id="paint5_linear_1011_1751" x1="177.02" y1="271.123" x2="162.605" y2="235.037" gradientUnits="userSpaceOnUse">
<stop stop-color="#68B2FC"/>
<stop offset="1" stop-color="#EBF0F7"/>
</linearGradient>
<linearGradient id="paint6_linear_1011_1751" x1="376.523" y1="216.336" x2="370.833" y2="216.336" gradientUnits="userSpaceOnUse">
<stop stop-color="#4085F0"/>
<stop offset="1" stop-color="#275DC9"/>
</linearGradient>
<linearGradient id="paint7_linear_1011_1751" x1="203.514" y1="181.121" x2="197.824" y2="181.121" gradientUnits="userSpaceOnUse">
<stop stop-color="#4085F0"/>
<stop offset="1" stop-color="#275DC9"/>
</linearGradient>
<linearGradient id="paint8_linear_1011_1751" x1="603.836" y1="176.432" x2="606.27" y2="147.335" gradientUnits="userSpaceOnUse">
<stop stop-color="#4085F0"/>
<stop offset="1" stop-color="#275DC9"/>
</linearGradient>
</defs>
</svg>
