<svg width="426" height="385" viewBox="0 0 426 385" fill="none" xmlns="http://www.w3.org/2000/svg">
<g id="&#230;&#154;&#130;&#230;&#151;&#160;&#230;&#168;&#161;&#230;&#157;&#191; 1" clip-path="url(#clip0_1107_1069)">
<g id="_&#229;&#155;&#190;&#229;&#177;&#130;_1-2">
<g id="Group">
<path id="Vector" d="M213 385.003C330.637 385.003 426 365.292 426 340.977C426 316.663 330.637 296.952 213 296.952C95.3633 296.952 0 316.663 0 340.977C0 365.292 95.3633 385.003 213 385.003Z" fill="url(#paint0_linear_1107_1069)"/>
<g id="Group_2">
<path id="Vector_2" d="M346.244 295.045H350.397C350.969 295.045 351.434 295.511 351.434 296.083V314.789C351.434 315.937 350.504 316.867 349.357 316.867H347.281C346.134 316.867 345.204 315.937 345.204 314.789V296.083C345.204 295.511 345.669 295.045 346.241 295.045H346.244Z" fill="#E9F0F4"/>
<path id="Vector_3" d="M348.32 252.437V304.398L327.558 295.046L348.32 252.437Z" fill="#E1EAEF"/>
<path id="Vector_4" d="M348.32 252.437V304.398L369.083 295.046L348.32 252.437Z" fill="#F5F7FA"/>
</g>
<g id="Group_3">
<path id="Vector_5" d="M376.508 294.807H382.02C382.779 294.807 383.399 295.424 383.399 296.188V321.016C383.399 322.54 382.166 323.775 380.643 323.775H377.887C376.365 323.775 375.131 322.54 375.131 321.016V296.188C375.131 295.427 375.748 294.807 376.511 294.807H376.508Z" fill="#E9F0F4"/>
<path id="Vector_6" d="M379.264 238.252V307.223L351.705 294.807L379.264 238.252Z" fill="#E1EAEF"/>
<path id="Vector_7" d="M379.264 238.252V307.223L406.822 294.807L379.264 238.252Z" fill="#F5F7FA"/>
</g>
<g id="Group_4">
<path id="Vector_8" d="M72.9604 291.354H78.4722C79.2319 291.354 79.8516 291.971 79.8516 292.734V317.563C79.8516 319.087 78.6181 320.321 77.0957 320.321H74.3398C72.8174 320.321 71.584 319.087 71.584 317.563V292.734C71.584 291.974 72.2007 291.354 72.9634 291.354H72.9604Z" fill="#E9F0F4"/>
<path id="Vector_9" d="M75.7164 234.799V303.769L48.1577 291.353L75.7164 234.799Z" fill="#E1EAEF"/>
<path id="Vector_10" d="M75.7163 234.799V303.769L103.275 291.353L75.7163 234.799Z" fill="#F5F7FA"/>
</g>
<path id="Vector_11" d="M163.847 69.0597C178.07 69.0597 193.196 63.754 208.689 67.3329C231.111 72.5132 251.972 87.8396 284.575 113.947C301.822 127.759 338.718 123.381 357.011 129.485C377.708 136.393 398.402 162.289 398.402 162.289" stroke="#F1F2F4" stroke-miterlimit="10"/>
<path id="Vector_12" d="M161.595 69.2537L154.683 68.7467L156.438 64.8607L161.598 69.2537H161.595ZM160.933 49.6924L156.083 60.8435L137.543 63.8765L154.71 63.9093L149.579 75.8806L126.68 64.8011L160.93 49.6954L160.933 49.6924Z" fill="url(#paint1_linear_1107_1069)"/>
<path id="Vector_13" d="M358.748 19.5971C358.724 19.5882 358.706 19.5643 358.706 19.5405C358.715 8.6101 350.227 0 339.764 0C333.6 0 328.142 2.95553 324.677 7.51259C324.662 7.53346 324.635 7.54241 324.611 7.53346C323.41 7.13383 322.129 6.90717 320.795 6.90717C314.127 6.90717 308.722 12.3172 308.722 18.9917C308.722 19.0424 308.728 19.0931 308.731 19.1468C303.696 19.9908 299.889 24.4614 300.109 29.7879C300.342 35.4276 305.332 39.7102 310.969 39.7102H354.872C360.217 39.7102 364.993 35.8361 365.577 30.5186C366.122 25.5172 363.107 21.148 358.751 19.5971H358.748Z" fill="url(#paint2_linear_1107_1069)"/>
<path id="Vector_14" opacity="0.3" d="M128.504 348.895C128.504 352.772 166.24 355.943 213 355.943C259.761 355.943 297.496 352.769 297.496 348.895C297.496 345.021 259.755 341.842 213 341.842C166.24 341.815 128.504 344.836 128.504 348.889" fill="#CED6DD"/>
<path id="Vector_15" d="M279.891 117.971H137.713C130.162 117.971 124.041 124.098 124.041 131.657V324.682C124.041 332.24 130.162 338.368 137.713 338.368H279.891C287.442 338.368 293.563 332.24 293.563 324.682V131.657C293.563 124.098 287.442 117.971 279.891 117.971Z" fill="url(#paint3_linear_1107_1069)"/>
<path id="Vector_16" d="M277.302 127.46H140.302C135.352 127.46 131.34 131.477 131.34 136.431V319.907C131.34 324.861 135.352 328.878 140.302 328.878H277.302C282.252 328.878 286.264 324.861 286.264 319.907V136.431C286.264 131.477 282.252 127.46 277.302 127.46Z" fill="white"/>
<path id="Vector_17" d="M269.279 140.04H148.623C145.248 140.04 142.512 142.779 142.512 146.157V196.851C142.512 200.229 145.248 202.968 148.623 202.968H269.279C272.654 202.968 275.39 200.229 275.39 196.851V146.157C275.39 142.779 272.654 140.04 269.279 140.04Z" fill="url(#paint4_linear_1107_1069)"/>
<path id="Vector_18" d="M219.825 221.161H152.195C146.847 221.161 142.512 225.5 142.512 230.853C142.512 236.206 146.847 240.546 152.195 240.546H219.825C225.173 240.546 229.508 236.206 229.508 230.853C229.508 225.5 225.173 221.161 219.825 221.161Z" fill="url(#paint5_linear_1107_1069)"/>
<path id="Vector_19" d="M268.826 221.161H244.414C240.789 221.161 237.851 224.102 237.851 227.731V262.607C237.851 266.235 240.789 269.177 244.414 269.177H268.826C272.451 269.177 275.39 266.235 275.39 262.607V227.731C275.39 224.102 272.451 221.161 268.826 221.161Z" fill="url(#paint6_linear_1107_1069)"/>
<path id="Vector_20" d="M219.825 249.792H152.195C146.847 249.792 142.512 254.131 142.512 259.484C142.512 264.837 146.847 269.177 152.195 269.177H219.825C225.173 269.177 229.508 264.837 229.508 259.484C229.508 254.131 225.173 249.792 219.825 249.792Z" fill="url(#paint7_linear_1107_1069)"/>
<path id="Vector_21" d="M265.707 287.667H152.195C146.847 287.667 142.512 292.007 142.512 297.36C142.512 302.713 146.847 307.053 152.195 307.053H265.707C271.054 307.053 275.39 302.713 275.39 297.36C275.39 292.007 271.054 287.667 265.707 287.667Z" fill="url(#paint8_linear_1107_1069)"/>
</g>
</g>
</g>
<defs>
<linearGradient id="paint0_linear_1107_1069" x1="213" y1="385" x2="213" y2="296.952" gradientUnits="userSpaceOnUse">
<stop stop-color="#F7FBFF" stop-opacity="0.5"/>
<stop offset="1" stop-color="#ECF5FF"/>
</linearGradient>
<linearGradient id="paint1_linear_1107_1069" x1="131.169" y1="73.8893" x2="164.581" y2="57.1092" gradientUnits="userSpaceOnUse">
<stop stop-color="#DCEDFF"/>
<stop offset="1" stop-color="#4095E6"/>
</linearGradient>
<linearGradient id="paint2_linear_1107_1069" x1="365.636" y1="19.8536" x2="300.097" y2="19.8536" gradientUnits="userSpaceOnUse">
<stop stop-color="#F7FBFF"/>
<stop offset="1" stop-color="#ECF5FF"/>
</linearGradient>
<linearGradient id="paint3_linear_1107_1069" x1="208.802" y1="338.368" x2="208.802" y2="117.971" gradientUnits="userSpaceOnUse">
<stop stop-color="#E0EFFF"/>
<stop offset="1" stop-color="#79BEFF"/>
</linearGradient>
<linearGradient id="paint4_linear_1107_1069" x1="208.951" y1="202.968" x2="208.951" y2="140.04" gradientUnits="userSpaceOnUse">
<stop stop-color="#F7FBFF"/>
<stop offset="1" stop-color="#ECF5FF"/>
</linearGradient>
<linearGradient id="paint5_linear_1107_1069" x1="186.01" y1="240.546" x2="186.01" y2="221.161" gradientUnits="userSpaceOnUse">
<stop stop-color="#F7FBFF"/>
<stop offset="1" stop-color="#ECF5FF"/>
</linearGradient>
<linearGradient id="paint6_linear_1107_1069" x1="256.62" y1="269.177" x2="256.62" y2="221.161" gradientUnits="userSpaceOnUse">
<stop stop-color="#F7FBFF"/>
<stop offset="1" stop-color="#ECF5FF"/>
</linearGradient>
<linearGradient id="paint7_linear_1107_1069" x1="186.01" y1="269.177" x2="186.01" y2="249.792" gradientUnits="userSpaceOnUse">
<stop stop-color="#F7FBFF"/>
<stop offset="1" stop-color="#ECF5FF"/>
</linearGradient>
<linearGradient id="paint8_linear_1107_1069" x1="208.951" y1="307.053" x2="208.951" y2="287.667" gradientUnits="userSpaceOnUse">
<stop stop-color="#F7FBFF"/>
<stop offset="1" stop-color="#ECF5FF"/>
</linearGradient>
<clipPath id="clip0_1107_1069">
<rect width="426" height="385" fill="white"/>
</clipPath>
</defs>
</svg>
