<svg width="42" height="42" viewBox="0 0 42 42" fill="none" xmlns="http://www.w3.org/2000/svg">
<g id="&#230;&#136;&#144;&#229;&#138;&#159; (1) 1" clip-path="url(#clip0_1093_886)">
<path id="Vector" d="M21.0002 0.000244141C9.40238 0.000244141 0.000488281 9.40213 0.000488281 21C0.000488281 32.5979 9.40238 41.9998 21.0002 41.9998C32.5981 41.9998 42 32.5979 42 21C42 9.40213 32.5981 0.000244141 21.0002 0.000244141ZM32.048 16.0263L19.2006 28.8739C18.8001 29.2744 18.2752 29.4746 17.7505 29.4746C17.2256 29.4746 16.7008 29.2744 16.3003 28.8739L16.2992 28.8727L9.95248 22.5261C9.15161 21.7252 9.15157 20.4267 9.95248 19.6259C10.7534 18.825 12.0518 18.825 12.8527 19.6259L17.7505 24.5236L29.1478 13.1261C29.9486 12.3253 31.2471 12.3252 32.048 13.1261C32.8489 13.927 32.8489 15.2255 32.048 16.0263Z" fill="#0DA400"/>
</g>
<defs>
<clipPath id="clip0_1093_886">
<rect width="42" height="42" fill="white"/>
</clipPath>
</defs>
</svg>
