<svg width="174" height="177" viewBox="0 0 174 177" fill="none" xmlns="http://www.w3.org/2000/svg">
<g id="Group 1000001284">
<g id="Group 427321265" filter="url(#filter0_d_1059_887)">
<g id="Dollar">
<g id="Group">
<path id="Union" d="M62.5783 40.7948L59.4801 44.5894L56.7368 48.6344L54.3905 52.9077L52.4868 57.3896L51.1176 61.9135L50.3324 66.3055L50.1195 70.5329L50.4694 74.5593L51.3745 78.3446L52.8284 81.8444L54.8264 85.0121L57.3651 87.7964L60.4423 90.1413L64.0551 91.9851L68.1986 93.2603L72.8631 93.894L77.8656 93.817L82.9828 93.0258L88.1356 91.5487L93.2407 89.422L98.212 86.6897L102.963 83.4032L107.407 79.6206L111.459 75.4057L115.041 70.8275L118.074 65.9587L120.491 60.8747L122.231 55.6517L123.211 50.5312L123.429 45.7383L122.941 41.3185L121.808 37.3096L120.089 33.7421L117.839 30.6407L115.108 28.0267L111.942 25.919L108.383 24.3364L104.469 23.2978L100.236 22.8223L95.7135 22.9297L91.0817 23.6153L86.5225 24.8268L82.0693 26.5173L77.7558 28.6444L73.6157 31.1693L69.6827 34.0569L65.9917 37.2751L62.5783 40.7948Z" fill="#00C68A" fill-opacity="0.56" stroke="url(#paint0_linear_1059_887)" stroke-width="1.13106"/>
<g id="Union_2" filter="url(#filter1_b_1059_887)">
<path fill-rule="evenodd" clip-rule="evenodd" d="M123.789 45.9864L123.587 50.9744L122.624 56.2816L120.91 61.6779L118.525 66.9184L115.53 71.9271L111.994 76.6297L107.991 80.9542L103.597 84.8323L98.8956 88.2003L93.968 90.9998L88.8977 93.1785L83.7671 94.6904L78.6564 95.4965L73.643 95.5647L68.9482 94.8952L64.7566 93.5554L61.0839 91.6173L58.5449 89.6707L55.9593 87.6883L53.3256 85.6692L50.6426 83.6122L54.3357 85.5326L58.5719 86.8345L63.3373 87.4435L68.4456 87.2929L73.6712 86.3853L78.9336 84.7542L84.1496 82.4404L89.2334 79.4924L94.0981 75.9653L98.6572 71.9206L102.826 67.4258L106.523 62.5528L109.67 57.3776L112.197 51.9786L114.038 46.4354L115.109 41.0007L115.397 35.9101L114.958 31.2126L113.85 26.9502L112.129 23.1591L109.852 19.8697L111.972 22.5022L114.054 25.0865L116.098 27.624L118.105 30.116L120.389 33.3972L122.135 37.1582L123.287 41.3668L123.789 45.9864Z" fill="url(#paint1_linear_1059_887)" fill-opacity="0.6"/>
</g>
<g id="Union_3" filter="url(#filter2_b_1059_887)">
<path fill-rule="evenodd" clip-rule="evenodd" d="M50.1545 35.2591L53.35 31.219L56.8604 27.4651L60.6482 24.0252L64.6773 20.9298L68.9134 18.2125L73.3227 15.9105L77.872 14.0653L82.5279 12.7226L87.2565 11.9336L91.8743 11.7574L96.2008 12.2041L100.202 13.2565L103.84 14.8972L107.073 17.1082L109.853 19.8695L112.131 23.1588L113.851 26.95L114.96 31.2123L115.399 35.9099L115.11 41.0005L114.04 46.4351L112.198 51.9783L109.671 57.3774L106.524 62.5526L102.828 67.4256L98.6588 71.9204L94.0997 75.965L89.235 79.4922L84.1512 82.4402L78.9352 84.754L73.6727 86.3851L68.4472 87.2927L63.3389 87.4433L58.5735 86.8343L54.3372 85.5324L50.6442 83.6119L47.5043 81.1444L44.9243 78.1976L42.9088 74.8348L41.4612 71.115L40.5841 67.091L40.2813 62.8121L40.5573 58.3219L41.4187 53.6591L42.8749 48.858L44.8719 44.1005L47.314 39.5606L50.1545 35.2591Z" fill="url(#paint2_linear_1059_887)" fill-opacity="0.2"/>
<path d="M53.779 31.5881L50.6131 35.591L47.8 39.8509L45.3828 44.3444L43.4076 49.0501L41.9691 53.793L41.1197 58.3909L40.8481 62.8095L41.1454 67.0104L42.0043 70.9512L43.4185 74.5851L45.3832 77.8633L47.8951 80.7323L50.9521 83.1346L54.5525 85.0069L58.6933 86.2795L63.3666 86.8767L68.3902 86.7286L73.5401 85.8342L78.7361 84.2236L83.894 81.9357L88.9264 79.0174L93.7452 75.5235L98.2629 71.5156L102.394 67.0615L106.056 62.2339L109.172 57.1098L111.672 51.7686L113.492 46.2908L114.548 40.9295L114.832 35.9203L114.401 31.3104L113.316 27.1394L111.637 23.4389L109.418 20.2342L106.711 17.5458L103.562 15.3922L100.013 13.7915L96.0992 12.7622L91.856 12.324L87.3141 12.4973L82.6532 13.275L78.0572 14.6005L73.5604 16.4244L69.1975 18.7021L65.0029 21.3929L61.0112 24.4595L57.2577 27.8682L53.779 31.5881Z" stroke="url(#paint3_linear_1059_887)" stroke-width="1.13106"/>
</g>
</g>
</g>
</g>
<g id="Vector" filter="url(#filter3_d_1059_887)">
<path d="M96.4333 43.0083L100.71 36.2269L71.1383 28.507L66.8615 35.2884L77.7636 38.1345L74.9695 42.5649C65.8713 40.6256 58.1635 40.5237 56.9223 42.4917C55.6811 44.4597 61.3201 47.8419 69.9463 50.5297L60.979 64.7482L68.7465 66.776L77.7159 52.5541C86.7835 54.4789 94.4556 54.5749 95.6929 52.6129C96.9305 50.6506 91.324 47.2795 82.7351 44.5956L85.5311 40.1621L96.4333 43.0083ZM92.6068 51.3407C91.7905 52.635 85.9456 52.3736 78.7869 50.8558L78.3253 50.7562L78.2755 50.7432L77.844 50.6476L77.7983 50.6356C77.4779 50.5637 77.1546 50.4894 76.8283 50.4122L76.8084 50.407L76.3713 50.3026L76.2492 50.2708L75.9058 50.1861L73.7479 49.6228L73.4134 49.5305L73.2962 49.4999L72.8983 49.3868L72.8541 49.3752C72.3828 49.2406 71.9213 49.1039 71.4686 48.9662L71.4624 48.9646L71.013 48.8255C64.1968 46.7003 59.6905 44.2551 60.5107 42.9546C61.3311 41.6538 67.2105 41.9236 74.4022 43.4516L71.8082 47.5646C72.9862 47.9414 74.2588 48.3116 75.6001 48.6617C76.9626 49.0174 78.3027 49.3287 79.578 49.5891L82.1622 45.4916C88.9474 47.613 93.423 50.0465 92.6068 51.3407Z" fill="#EFFFFA"/>
</g>
</g>
<defs>
<filter id="filter0_d_1059_887" x="0.581249" y="3.05735" width="173.114" height="173.207" filterUnits="userSpaceOnUse" color-interpolation-filters="sRGB">
<feFlood flood-opacity="0" result="BackgroundImageFix"/>
<feColorMatrix in="SourceAlpha" type="matrix" values="0 0 0 0 0 0 0 0 0 0 0 0 0 0 0 0 0 0 127 0" result="hardAlpha"/>
<feOffset dx="5" dy="36"/>
<feGaussianBlur stdDeviation="22.35"/>
<feComposite in2="hardAlpha" operator="out"/>
<feColorMatrix type="matrix" values="0 0 0 0 0 0 0 0 0 0.765668 0 0 0 0 0.533648 0 0 0 0.3 0"/>
<feBlend mode="normal" in2="BackgroundImageFix" result="effect1_dropShadow_1059_887"/>
<feBlend mode="normal" in="SourceGraphic" in2="effect1_dropShadow_1059_887" result="shape"/>
</filter>
<filter id="filter1_b_1059_887" x="16.7108" y="-14.062" width="141.01" height="143.558" filterUnits="userSpaceOnUse" color-interpolation-filters="sRGB">
<feFlood flood-opacity="0" result="BackgroundImageFix"/>
<feGaussianBlur in="BackgroundImageFix" stdDeviation="16.9659"/>
<feComposite in2="SourceAlpha" operator="in" result="effect1_backgroundBlur_1059_887"/>
<feBlend mode="normal" in="SourceGraphic" in2="effect1_backgroundBlur_1059_887" result="shape"/>
</filter>
<filter id="filter2_b_1059_887" x="25.5775" y="-2.94641" width="104.525" height="105.093" filterUnits="userSpaceOnUse" color-interpolation-filters="sRGB">
<feFlood flood-opacity="0" result="BackgroundImageFix"/>
<feGaussianBlur in="BackgroundImageFix" stdDeviation="7.35188"/>
<feComposite in2="SourceAlpha" operator="in" result="effect1_backgroundBlur_1059_887"/>
<feBlend mode="normal" in="SourceGraphic" in2="effect1_backgroundBlur_1059_887" result="shape"/>
</filter>
<filter id="filter3_d_1059_887" x="56.751" y="28.507" width="43.959" height="41.269" filterUnits="userSpaceOnUse" color-interpolation-filters="sRGB">
<feFlood flood-opacity="0" result="BackgroundImageFix"/>
<feColorMatrix in="SourceAlpha" type="matrix" values="0 0 0 0 0 0 0 0 0 0 0 0 0 0 0 0 0 0 127 0" result="hardAlpha"/>
<feOffset dy="3"/>
<feComposite in2="hardAlpha" operator="out"/>
<feColorMatrix type="matrix" values="0 0 0 0 0 0 0 0 0 0 0 0 0 0 0 0 0 0 0.11 0"/>
<feBlend mode="normal" in2="BackgroundImageFix" result="effect1_dropShadow_1059_887"/>
<feBlend mode="normal" in="SourceGraphic" in2="effect1_dropShadow_1059_887" result="shape"/>
</filter>
<linearGradient id="paint0_linear_1059_887" x1="112.482" y1="88.0965" x2="88.0885" y2="58.3325" gradientUnits="userSpaceOnUse">
<stop stop-color="white" stop-opacity="0.27"/>
<stop offset="0.688828" stop-color="white" stop-opacity="0"/>
</linearGradient>
<linearGradient id="paint1_linear_1059_887" x1="111.399" y1="33.5766" x2="61.3898" y2="91.7716" gradientUnits="userSpaceOnUse">
<stop offset="0.325325" stop-color="#B6FFE9"/>
<stop offset="0.59538" stop-color="#009A6B"/>
<stop offset="0.814274" stop-color="#006043"/>
<stop offset="0.896974" stop-color="#00412E"/>
<stop offset="1" stop-color="#007451"/>
</linearGradient>
<linearGradient id="paint2_linear_1059_887" x1="127.663" y1="60.105" x2="24.9963" y2="38.8201" gradientUnits="userSpaceOnUse">
<stop offset="0.89375" stop-color="#00B37D"/>
</linearGradient>
<linearGradient id="paint3_linear_1059_887" x1="110.699" y1="79.3978" x2="58.145" y2="72.4108" gradientUnits="userSpaceOnUse">
<stop offset="0.0596223" stop-color="white" stop-opacity="0.45"/>
<stop offset="0.701218" stop-color="white" stop-opacity="0"/>
</linearGradient>
</defs>
</svg>
