<svg width="120" height="143" viewBox="0 0 120 143" fill="none" xmlns="http://www.w3.org/2000/svg">
<g id="Group 1000001247">
<g id="&#233;&#152;&#180;&#229;&#189;&#177;" filter="url(#filter0_f_669_761)">
<path fill-rule="evenodd" clip-rule="evenodd" d="M107.369 116.841L106.8 118.262L104.937 119.841L100.895 121.609L94.0108 123.441L83.9055 125.02L72.916 125.967L60.0003 126.315L47.0845 125.967L36.095 125.02L25.9897 123.441L19.1055 121.609L15.0634 119.841L13.2003 118.262L12.6318 116.841L13.2003 115.42L15.0634 113.841L19.1055 112.072L25.9897 110.241L36.095 108.662L47.0845 107.715L60.0003 107.367L72.916 107.715L83.9055 108.662L94.0108 110.241L100.895 112.072L104.937 113.841L106.8 115.42L107.369 116.841Z" fill="#FF4040" fill-opacity="0.55"/>
</g>
<g id="Vector" filter="url(#filter1_ii_669_761)">
<path fill-rule="evenodd" clip-rule="evenodd" d="M32.4 0H87.6L95.3368 0.252632L100.011 0.852632L103.989 1.95789L107.084 3.37895L112.579 7.42105L116.621 12.9158L118.042 16.0105L119.147 19.9895L119.747 24.6632L120 32.4V68.6526L119.747 76.3895L119.147 81.0632L118.042 85.0421L116.621 88.1368L112.579 93.6316L107.084 97.6737L103.989 99.0947L100.011 100.2L95.3368 100.8L87.6 101.053H32.4L24.6632 100.8L19.9895 100.2L16.0105 99.0947L12.9158 97.6737L7.42105 93.6316L3.37895 88.1368L1.95789 85.0421L0.852632 81.0632L0.252631 76.3895L0 68.6526V32.4L0.252631 24.6632L0.852632 19.9895L1.95789 16.0105L3.37895 12.9158L7.42105 7.42105L12.9158 3.37895L16.0105 1.95789L19.9895 0.852632L24.6632 0.252632L32.4 0Z" fill="#FF4C47"/>
</g>
<g id="Vector_2">
<g filter="url(#filter2_i_669_761)">
<path fill-rule="evenodd" clip-rule="evenodd" d="M12.6318 64.9888L16.4529 62.6203L19.4529 59.273L21.4108 55.1993L22.1055 50.5256L21.4108 45.8519L19.4529 41.7782L16.4529 38.4309L12.6318 36.0624V28.8309L13.0739 22.6098L14.3055 19.1045L16.3582 16.3572L19.1055 14.3045L22.6108 13.073L28.8318 12.6309H91.1687L97.3897 13.073L100.895 14.3045L103.642 16.3572L105.695 19.1045L106.927 22.6098L107.369 28.8309V36.0624L103.548 38.4309L100.548 41.7782L98.5897 45.8519L97.895 50.5256L98.5897 55.1993L100.548 59.273L103.548 62.6203L107.369 64.9888V72.2203L106.927 78.4414L105.695 81.9467L103.642 84.694L100.895 86.7466L97.3897 87.9782L91.1687 88.4203H28.8318L22.6108 87.9782L19.1055 86.7466L16.3582 84.694L14.3055 81.9467L13.0739 78.4414L12.6318 72.2203V64.9888Z" fill="#FFB8B6" fill-opacity="0.58"/>
</g>
<path d="M16.5846 62.8328L16.6151 62.8139L16.6391 62.7872L19.6391 59.4398L19.6628 59.4133L19.6782 59.3813L21.6361 55.3076L21.6525 55.2735L21.6581 55.236L22.3528 50.5624L22.3583 50.5256L22.3528 50.4888L21.6581 45.8152L21.6525 45.7777L21.6361 45.7436L19.6782 41.6699L19.6628 41.6379L19.6391 41.6114L16.6391 38.264L16.6151 38.2373L16.5846 38.2184L12.8818 35.9233V28.8397L13.3209 22.661L14.5287 19.2235L16.5368 16.5358L19.2245 14.5277L22.662 13.32L28.8407 12.8809H91.1598L97.3385 13.32L100.776 14.5277L103.464 16.5358L105.472 19.2235L106.68 22.661L107.119 28.8398V35.9233L103.416 38.2184L103.385 38.2373L103.361 38.264L100.361 41.6114L100.338 41.6379L100.322 41.6699L98.3644 45.7436L98.348 45.7777L98.3424 45.8152L97.6477 50.4888L97.6422 50.5256L97.6477 50.5624L98.3424 55.236L98.348 55.2735L98.3644 55.3076L100.322 59.3813L100.338 59.4133L100.361 59.4398L103.361 62.7872L103.385 62.8139L103.416 62.8328L107.119 65.1279V72.2114L106.68 78.3902L105.472 81.8277L103.464 84.5154L100.776 86.5235L97.3385 87.7312L91.1599 88.1703H28.8406L22.662 87.7312L19.2245 86.5235L16.5368 84.5154L14.5287 81.8277L13.3209 78.3902L12.8818 72.2115V65.1279L16.5846 62.8328Z" stroke="url(#paint0_linear_669_761)" stroke-width="0.5"/>
</g>
<g id="Vector_3" filter="url(#filter3_i_669_761)">
<path d="M59.8022 26.5268C61.0589 26.4783 62.3316 26.9337 63.291 27.8931C65.1174 29.7196 65.1174 32.6808 63.291 34.5072C62.3777 35.4205 61.1807 35.8771 59.9836 35.8771C55.9939 35.8799 52.0042 37.4019 48.9602 40.446C44.0242 45.3819 43.0901 52.8042 46.1578 58.6813L48.9602 55.8789C50.7866 54.0524 53.7478 54.0524 55.5743 55.8789C57.4007 57.7053 57.4007 60.6665 55.5743 62.493L48.9602 69.107C47.1337 70.9335 44.1725 70.9335 42.3461 69.107C32.6051 59.3661 32.6051 43.5729 42.3461 33.8319C47.1704 29.0076 53.4793 26.5726 59.8022 26.5268ZM60.1704 76.4121C58.9114 76.4626 57.6359 76.0072 56.6747 75.046C54.8483 73.2196 54.8483 70.2584 56.6747 68.4319C57.5884 67.5182 58.7861 67.0616 59.9836 67.0621C63.9734 67.059 67.9631 65.537 71.0071 62.493C75.943 57.557 76.8772 50.1347 73.8095 44.2577L71.0071 47.0601C69.1807 48.8865 66.2195 48.8865 64.393 47.0601C62.5666 45.2337 62.5666 42.2724 64.393 40.446L71.0071 33.8319C72.8336 32.0055 75.7948 32.0055 77.6212 33.8319C87.3622 43.5729 87.3622 59.3661 77.6212 69.107C72.7982 73.93 66.4916 76.365 60.1704 76.4121Z" fill="url(#paint1_linear_669_761)"/>
</g>
<g id="&#231;&#159;&#169;&#229;&#189;&#162;" filter="url(#filter4_f_669_761)">
<path fill-rule="evenodd" clip-rule="evenodd" d="M26.3688 81.411L55.0109 60.5057L57.1583 59.0847L58.6109 58.5479H61.3899L62.8425 59.0847L64.9899 60.5057L93.632 81.411L96.853 83.9373L98.4951 85.7057L100.453 89.59L100.927 91.9584L101.053 96.0321V122.748L100.611 128.969L99.3793 132.506L97.3267 135.253L94.5793 137.274L91.0741 138.537L84.853 138.948H35.1478L28.9267 138.537L25.4214 137.274L22.6741 135.253L20.6214 132.506L19.3899 128.969L18.9478 122.748V96.0321L19.0741 91.9584L19.5478 89.59L21.5056 85.7057L23.1478 83.9373L26.3688 81.411Z" fill="white" fill-opacity="0.2"/>
</g>
</g>
<defs>
<filter id="filter0_f_669_761" x="2.63184" y="97.3672" width="114.737" height="38.9473" filterUnits="userSpaceOnUse" color-interpolation-filters="sRGB">
<feFlood flood-opacity="0" result="BackgroundImageFix"/>
<feBlend mode="normal" in="SourceGraphic" in2="BackgroundImageFix" result="shape"/>
<feGaussianBlur stdDeviation="5" result="effect1_foregroundBlur_669_761"/>
</filter>
<filter id="filter1_ii_669_761" x="0" y="0" width="120" height="105.053" filterUnits="userSpaceOnUse" color-interpolation-filters="sRGB">
<feFlood flood-opacity="0" result="BackgroundImageFix"/>
<feBlend mode="normal" in="SourceGraphic" in2="BackgroundImageFix" result="shape"/>
<feColorMatrix in="SourceAlpha" type="matrix" values="0 0 0 0 0 0 0 0 0 0 0 0 0 0 0 0 0 0 127 0" result="hardAlpha"/>
<feOffset dy="5"/>
<feGaussianBlur stdDeviation="2"/>
<feComposite in2="hardAlpha" operator="arithmetic" k2="-1" k3="1"/>
<feColorMatrix type="matrix" values="0 0 0 0 1 0 0 0 0 1 0 0 0 0 1 0 0 0 0.6 0"/>
<feBlend mode="normal" in2="shape" result="effect1_innerShadow_669_761"/>
<feColorMatrix in="SourceAlpha" type="matrix" values="0 0 0 0 0 0 0 0 0 0 0 0 0 0 0 0 0 0 127 0" result="hardAlpha"/>
<feOffset dy="2"/>
<feGaussianBlur stdDeviation="1"/>
<feComposite in2="hardAlpha" operator="arithmetic" k2="-1" k3="1"/>
<feColorMatrix type="matrix" values="0 0 0 0 1 0 0 0 0 1 0 0 0 0 1 0 0 0 0.4 0"/>
<feBlend mode="normal" in2="effect1_innerShadow_669_761" result="effect2_innerShadow_669_761"/>
</filter>
<filter id="filter2_i_669_761" x="12.6318" y="12.6309" width="94.7368" height="81.7891" filterUnits="userSpaceOnUse" color-interpolation-filters="sRGB">
<feFlood flood-opacity="0" result="BackgroundImageFix"/>
<feBlend mode="normal" in="SourceGraphic" in2="BackgroundImageFix" result="shape"/>
<feColorMatrix in="SourceAlpha" type="matrix" values="0 0 0 0 0 0 0 0 0 0 0 0 0 0 0 0 0 0 127 0" result="hardAlpha"/>
<feOffset dy="9"/>
<feGaussianBlur stdDeviation="3"/>
<feComposite in2="hardAlpha" operator="arithmetic" k2="-1" k3="1"/>
<feColorMatrix type="matrix" values="0 0 0 0 1 0 0 0 0 1 0 0 0 0 1 0 0 0 0.21 0"/>
<feBlend mode="normal" in2="shape" result="effect1_innerShadow_669_761"/>
</filter>
<filter id="filter3_i_669_761" x="35.0403" y="26.5234" width="49.8867" height="50.8926" filterUnits="userSpaceOnUse" color-interpolation-filters="sRGB">
<feFlood flood-opacity="0" result="BackgroundImageFix"/>
<feBlend mode="normal" in="SourceGraphic" in2="BackgroundImageFix" result="shape"/>
<feColorMatrix in="SourceAlpha" type="matrix" values="0 0 0 0 0 0 0 0 0 0 0 0 0 0 0 0 0 0 127 0" result="hardAlpha"/>
<feOffset dy="1"/>
<feGaussianBlur stdDeviation="0.5"/>
<feComposite in2="hardAlpha" operator="arithmetic" k2="-1" k3="1"/>
<feColorMatrix type="matrix" values="0 0 0 0 1 0 0 0 0 1 0 0 0 0 1 0 0 0 0.5 0"/>
<feBlend mode="normal" in2="shape" result="effect1_innerShadow_669_761"/>
</filter>
<filter id="filter4_f_669_761" x="14.9478" y="54.5479" width="90.1052" height="88.4004" filterUnits="userSpaceOnUse" color-interpolation-filters="sRGB">
<feFlood flood-opacity="0" result="BackgroundImageFix"/>
<feBlend mode="normal" in="SourceGraphic" in2="BackgroundImageFix" result="shape"/>
<feGaussianBlur stdDeviation="2" result="effect1_foregroundBlur_669_761"/>
</filter>
<linearGradient id="paint0_linear_669_761" x1="60.0003" y1="12.6309" x2="60.0003" y2="88.4203" gradientUnits="userSpaceOnUse">
<stop stop-color="white" stop-opacity="0"/>
<stop offset="1" stop-color="white" stop-opacity="0.2"/>
</linearGradient>
<linearGradient id="paint1_linear_669_761" x1="82.9381" y1="39.1529" x2="47.663" y2="74.428" gradientUnits="userSpaceOnUse">
<stop stop-color="white"/>
<stop offset="1" stop-color="#FFDADA"/>
</linearGradient>
</defs>
</svg>
