<svg width="120" height="143" viewBox="0 0 120 143" fill="none" xmlns="http://www.w3.org/2000/svg">
<g id="Group 1000001246">
<g id="&#233;&#152;&#180;&#229;&#189;&#177;" filter="url(#filter0_f_669_760)">
<path fill-rule="evenodd" clip-rule="evenodd" d="M107.369 116.841L106.8 118.262L104.937 119.841L100.895 121.609L94.0108 123.441L83.9055 125.02L72.916 125.967L60.0003 126.315L47.0845 125.967L36.095 125.02L25.9897 123.441L19.1055 121.609L15.0634 119.841L13.2003 118.262L12.6318 116.841L13.2003 115.42L15.0634 113.841L19.1055 112.072L25.9897 110.241L36.095 108.662L47.0845 107.715L60.0003 107.367L72.916 107.715L83.9055 108.662L94.0108 110.241L100.895 112.072L104.937 113.841L106.8 115.42L107.369 116.841Z" fill="#FF4040" fill-opacity="0.55"/>
</g>
<g id="Vector" filter="url(#filter1_ii_669_760)">
<path fill-rule="evenodd" clip-rule="evenodd" d="M32.4 0H87.6L95.3368 0.252632L100.011 0.852632L103.989 1.95789L107.084 3.37895L112.579 7.42105L116.621 12.9158L118.042 16.0105L119.147 19.9895L119.747 24.6632L120 32.4V68.6526L119.747 76.3895L119.147 81.0632L118.042 85.0421L116.621 88.1368L112.579 93.6316L107.084 97.6737L103.989 99.0947L100.011 100.2L95.3368 100.8L87.6 101.053H32.4L24.6632 100.8L19.9895 100.2L16.0105 99.0947L12.9158 97.6737L7.42105 93.6316L3.37895 88.1368L1.95789 85.0421L0.852632 81.0632L0.252631 76.3895L0 68.6526V32.4L0.252631 24.6632L0.852632 19.9895L1.95789 16.0105L3.37895 12.9158L7.42105 7.42105L12.9158 3.37895L16.0105 1.95789L19.9895 0.852632L24.6632 0.252632L32.4 0Z" fill="#FF4C47"/>
</g>
<g id="Vector_2">
<g filter="url(#filter2_i_669_760)">
<path fill-rule="evenodd" clip-rule="evenodd" d="M12.6318 64.9888L16.4529 62.6203L19.4529 59.273L21.4108 55.1993L22.1055 50.5256L21.4108 45.8519L19.4529 41.7782L16.4529 38.4309L12.6318 36.0624V28.8309L13.0739 22.6098L14.3055 19.1045L16.3582 16.3572L19.1055 14.3045L22.6108 13.073L28.8318 12.6309H91.1687L97.3897 13.073L100.895 14.3045L103.642 16.3572L105.695 19.1045L106.927 22.6098L107.369 28.8309V36.0624L103.548 38.4309L100.548 41.7782L98.5897 45.8519L97.895 50.5256L98.5897 55.1993L100.548 59.273L103.548 62.6203L107.369 64.9888V72.2203L106.927 78.4414L105.695 81.9467L103.642 84.694L100.895 86.7466L97.3897 87.9782L91.1687 88.4203H28.8318L22.6108 87.9782L19.1055 86.7466L16.3582 84.694L14.3055 81.9467L13.0739 78.4414L12.6318 72.2203V64.9888Z" fill="#FFB8B6" fill-opacity="0.58"/>
</g>
<path d="M16.5846 62.8328L16.6151 62.8139L16.6391 62.7872L19.6391 59.4398L19.6628 59.4133L19.6782 59.3813L21.6361 55.3076L21.6525 55.2735L21.6581 55.236L22.3528 50.5624L22.3583 50.5256L22.3528 50.4888L21.6581 45.8152L21.6525 45.7777L21.6361 45.7436L19.6782 41.6699L19.6628 41.6379L19.6391 41.6114L16.6391 38.264L16.6151 38.2373L16.5846 38.2184L12.8818 35.9233V28.8397L13.3209 22.661L14.5287 19.2235L16.5368 16.5358L19.2245 14.5277L22.662 13.32L28.8407 12.8809H91.1598L97.3385 13.32L100.776 14.5277L103.464 16.5358L105.472 19.2235L106.68 22.661L107.119 28.8398V35.9233L103.416 38.2184L103.385 38.2373L103.361 38.264L100.361 41.6114L100.338 41.6379L100.322 41.6699L98.3644 45.7436L98.348 45.7777L98.3424 45.8152L97.6477 50.4888L97.6422 50.5256L97.6477 50.5624L98.3424 55.236L98.348 55.2735L98.3644 55.3076L100.322 59.3813L100.338 59.4133L100.361 59.4398L103.361 62.7872L103.385 62.8139L103.416 62.8328L107.119 65.1279V72.2114L106.68 78.3902L105.472 81.8277L103.464 84.5154L100.776 86.5235L97.3385 87.7312L91.1599 88.1703H28.8406L22.662 87.7312L19.2245 86.5235L16.5368 84.5154L14.5287 81.8277L13.3209 78.3902L12.8818 72.2115V65.1279L16.5846 62.8328Z" stroke="url(#paint0_linear_669_760)" stroke-width="0.5"/>
</g>
<g id="&#231;&#159;&#169;&#229;&#189;&#162;" filter="url(#filter3_f_669_760)">
<path fill-rule="evenodd" clip-rule="evenodd" d="M26.3688 81.411L55.0109 60.5057L57.1583 59.0847L58.6109 58.5479H61.3899L62.8425 59.0847L64.9899 60.5057L93.632 81.411L96.853 83.9373L98.4951 85.7057L100.453 89.59L100.927 91.9584L101.053 96.0321V122.748L100.611 128.969L99.3793 132.506L97.3267 135.253L94.5793 137.274L91.0741 138.537L84.853 138.948H35.1478L28.9267 138.537L25.4214 137.274L22.6741 135.253L20.6214 132.506L19.3899 128.969L18.9478 122.748V96.0321L19.0741 91.9584L19.5478 89.59L21.5056 85.7057L23.1478 83.9373L26.3688 81.411Z" fill="white" fill-opacity="0.2"/>
</g>
<g id="Vector_3">
<path fill-rule="evenodd" clip-rule="evenodd" d="M49.0833 31.8406L78.1143 60.1803L79.54 62.2903L79.9998 64.6697L79.5399 67.049L78.1143 69.1591L75.9528 70.5508L73.5154 70.9997L71.078 70.5508L68.9165 69.1591L39.8855 40.8194L38.4599 38.7094L38 36.33L38.4599 33.9506L39.8855 31.8406L42.047 30.4489L44.4844 30L46.9218 30.4489L49.0833 31.8406Z" fill="url(#paint1_linear_669_760)"/>
<path fill-rule="evenodd" clip-rule="evenodd" d="M78.1145 40.8197L49.0835 69.1594L46.922 70.5511L44.4846 71L42.0472 70.5511L39.8857 69.1594L38.46 67.0494L38.0002 64.67L38.46 62.2906L39.8857 60.1806L68.9167 31.841L71.0782 30.4493L73.5156 30.0003L75.953 30.4493L78.1145 31.841L79.5401 33.951L80 36.3303L79.5401 38.7097L78.1145 40.8197Z" fill="url(#paint2_linear_669_760)"/>
</g>
</g>
<defs>
<filter id="filter0_f_669_760" x="2.63184" y="97.3672" width="114.737" height="38.9473" filterUnits="userSpaceOnUse" color-interpolation-filters="sRGB">
<feFlood flood-opacity="0" result="BackgroundImageFix"/>
<feBlend mode="normal" in="SourceGraphic" in2="BackgroundImageFix" result="shape"/>
<feGaussianBlur stdDeviation="5" result="effect1_foregroundBlur_669_760"/>
</filter>
<filter id="filter1_ii_669_760" x="0" y="0" width="120" height="105.053" filterUnits="userSpaceOnUse" color-interpolation-filters="sRGB">
<feFlood flood-opacity="0" result="BackgroundImageFix"/>
<feBlend mode="normal" in="SourceGraphic" in2="BackgroundImageFix" result="shape"/>
<feColorMatrix in="SourceAlpha" type="matrix" values="0 0 0 0 0 0 0 0 0 0 0 0 0 0 0 0 0 0 127 0" result="hardAlpha"/>
<feOffset dy="5"/>
<feGaussianBlur stdDeviation="2"/>
<feComposite in2="hardAlpha" operator="arithmetic" k2="-1" k3="1"/>
<feColorMatrix type="matrix" values="0 0 0 0 1 0 0 0 0 1 0 0 0 0 1 0 0 0 0.6 0"/>
<feBlend mode="normal" in2="shape" result="effect1_innerShadow_669_760"/>
<feColorMatrix in="SourceAlpha" type="matrix" values="0 0 0 0 0 0 0 0 0 0 0 0 0 0 0 0 0 0 127 0" result="hardAlpha"/>
<feOffset dy="2"/>
<feGaussianBlur stdDeviation="1"/>
<feComposite in2="hardAlpha" operator="arithmetic" k2="-1" k3="1"/>
<feColorMatrix type="matrix" values="0 0 0 0 1 0 0 0 0 1 0 0 0 0 1 0 0 0 0.4 0"/>
<feBlend mode="normal" in2="effect1_innerShadow_669_760" result="effect2_innerShadow_669_760"/>
</filter>
<filter id="filter2_i_669_760" x="12.6318" y="12.6309" width="94.7368" height="81.7891" filterUnits="userSpaceOnUse" color-interpolation-filters="sRGB">
<feFlood flood-opacity="0" result="BackgroundImageFix"/>
<feBlend mode="normal" in="SourceGraphic" in2="BackgroundImageFix" result="shape"/>
<feColorMatrix in="SourceAlpha" type="matrix" values="0 0 0 0 0 0 0 0 0 0 0 0 0 0 0 0 0 0 127 0" result="hardAlpha"/>
<feOffset dy="9"/>
<feGaussianBlur stdDeviation="3"/>
<feComposite in2="hardAlpha" operator="arithmetic" k2="-1" k3="1"/>
<feColorMatrix type="matrix" values="0 0 0 0 1 0 0 0 0 1 0 0 0 0 1 0 0 0 0.21 0"/>
<feBlend mode="normal" in2="shape" result="effect1_innerShadow_669_760"/>
</filter>
<filter id="filter3_f_669_760" x="14.9478" y="54.5479" width="90.1052" height="88.4004" filterUnits="userSpaceOnUse" color-interpolation-filters="sRGB">
<feFlood flood-opacity="0" result="BackgroundImageFix"/>
<feBlend mode="normal" in="SourceGraphic" in2="BackgroundImageFix" result="shape"/>
<feGaussianBlur stdDeviation="2" result="effect1_foregroundBlur_669_760"/>
</filter>
<linearGradient id="paint0_linear_669_760" x1="60.0003" y1="12.6309" x2="60.0003" y2="88.4203" gradientUnits="userSpaceOnUse">
<stop stop-color="white" stop-opacity="0"/>
<stop offset="1" stop-color="white" stop-opacity="0.2"/>
</linearGradient>
<linearGradient id="paint1_linear_669_760" x1="57.8341" y1="60.6162" x2="48.8579" y2="51.4211" gradientUnits="userSpaceOnUse">
<stop stop-color="white"/>
<stop offset="1" stop-color="#FFDADA"/>
</linearGradient>
<linearGradient id="paint2_linear_669_760" x1="57.8341" y1="60.6162" x2="48.8579" y2="51.4211" gradientUnits="userSpaceOnUse">
<stop stop-color="white"/>
<stop offset="1" stop-color="#FFDADA"/>
</linearGradient>
</defs>
</svg>
