<svg width="120" height="143" viewBox="0 0 120 143" fill="none" xmlns="http://www.w3.org/2000/svg">
<g id="Group 1000001245">
<g id="&#233;&#152;&#180;&#229;&#189;&#177;" filter="url(#filter0_f_669_780)">
<path fill-rule="evenodd" clip-rule="evenodd" d="M107.368 116.841L106.8 118.262L104.937 119.841L100.895 121.609L94.0105 123.441L83.9053 125.02L72.9158 125.967L60 126.315L47.0842 125.967L36.0947 125.02L25.9895 123.441L19.1053 121.609L15.0632 119.841L13.2 118.262L12.6316 116.841L13.2 115.42L15.0632 113.841L19.1053 112.072L25.9895 110.241L36.0947 108.662L47.0842 107.715L60 107.367L72.9158 107.715L83.9053 108.662L94.0105 110.241L100.895 112.072L104.937 113.841L106.8 115.42L107.368 116.841Z" fill="#FF4040" fill-opacity="0.55"/>
</g>
<g id="Vector" filter="url(#filter1_ii_669_780)">
<path fill-rule="evenodd" clip-rule="evenodd" d="M32.4 0H87.6L95.3368 0.252632L100.011 0.852632L103.989 1.95789L107.084 3.37895L112.579 7.42105L116.621 12.9158L118.042 16.0105L119.147 19.9895L119.747 24.6632L120 32.4V68.6526L119.747 76.3895L119.147 81.0632L118.042 85.0421L116.621 88.1368L112.579 93.6316L107.084 97.6737L103.989 99.0947L100.011 100.2L95.3368 100.8L87.6 101.053H32.4L24.6632 100.8L19.9895 100.2L16.0105 99.0947L12.9158 97.6737L7.42105 93.6316L3.37895 88.1368L1.95789 85.0421L0.852632 81.0632L0.252631 76.3895L0 68.6526V32.4L0.252631 24.6632L0.852632 19.9895L1.95789 16.0105L3.37895 12.9158L7.42105 7.42105L12.9158 3.37895L16.0105 1.95789L19.9895 0.852632L24.6632 0.252632L32.4 0Z" fill="#FF4C47"/>
</g>
<g id="Vector_2">
<g filter="url(#filter2_i_669_780)">
<path fill-rule="evenodd" clip-rule="evenodd" d="M12.6316 64.9888L16.4526 62.6203L19.4526 59.273L21.4105 55.1993L22.1053 50.5256L21.4105 45.8519L19.4526 41.7782L16.4526 38.4309L12.6316 36.0624V28.8309L13.0737 22.6098L14.3053 19.1045L16.3579 16.3572L19.1053 14.3045L22.6105 13.073L28.8316 12.6309H91.1684L97.3895 13.073L100.895 14.3045L103.642 16.3572L105.695 19.1045L106.926 22.6098L107.368 28.8309V36.0624L103.547 38.4309L100.547 41.7782L98.5895 45.8519L97.8947 50.5256L98.5895 55.1993L100.547 59.273L103.547 62.6203L107.368 64.9888V72.2203L106.926 78.4414L105.695 81.9467L103.642 84.694L100.895 86.7467L97.3895 87.9782L91.1684 88.4203H28.8316L22.6105 87.9782L19.1053 86.7467L16.3579 84.694L14.3053 81.9467L13.0737 78.4414L12.6316 72.2203V64.9888Z" fill="#FFB8B6" fill-opacity="0.58"/>
</g>
<path d="M16.5844 62.8328L16.6149 62.8139L16.6388 62.7872L19.6388 59.4398L19.6626 59.4133L19.678 59.3813L21.6359 55.3076L21.6523 55.2735L21.6578 55.236L22.3526 50.5624L22.358 50.5256L22.3526 50.4888L21.6578 45.8152L21.6523 45.7777L21.6359 45.7436L19.678 41.6699L19.6626 41.6379L19.6388 41.6114L16.6388 38.264L16.6149 38.2373L16.5844 38.2184L12.8816 35.9233V28.8397L13.3207 22.661L14.5285 19.2235L16.5365 16.5358L19.2243 14.5277L22.6617 13.32L28.8405 12.8809H91.1596L97.3383 13.32L100.776 14.5277L103.464 16.5358L105.472 19.2235L106.679 22.661L107.118 28.8398V35.9233L103.416 38.2184L103.385 38.2373L103.361 38.264L100.361 41.6114L100.337 41.6379L100.322 41.6699L98.3642 45.7436L98.3478 45.7777L98.3422 45.8152L97.6475 50.4888L97.642 50.5256L97.6475 50.5624L98.3422 55.236L98.3478 55.2735L98.3642 55.3076L100.322 59.3813L100.337 59.4133L100.361 59.4398L103.361 62.7872L103.385 62.8139L103.416 62.8328L107.118 65.1279V72.2114L106.679 78.3902L105.472 81.8277L103.464 84.5154L100.776 86.5235L97.3383 87.7312L91.1595 88.1703H28.8405L22.6617 87.7312L19.2242 86.5235L16.5365 84.5154L14.5285 81.8277L13.3207 78.3902L12.8816 72.2115V65.1279L16.5844 62.8328Z" stroke="url(#paint0_linear_669_780)" stroke-width="0.5"/>
</g>
<g id="&#231;&#159;&#169;&#229;&#189;&#162;" filter="url(#filter3_f_669_780)">
<path fill-rule="evenodd" clip-rule="evenodd" d="M26.3686 81.411L55.0107 60.5057L57.158 59.0847L58.6107 58.5479H61.3896L62.8422 59.0847L64.9896 60.5057L93.6317 81.411L96.8528 83.9373L98.4949 85.7057L100.453 89.59L100.926 91.9584L101.053 96.0321V122.748L100.611 128.969L99.3791 132.506L97.3265 135.253L94.5791 137.274L91.0738 138.537L84.8528 138.948H35.1475L28.9265 138.537L25.4212 137.274L22.6738 135.253L20.6212 132.506L19.3896 128.969L18.9475 122.748V96.0321L19.0738 91.9584L19.5475 89.59L21.5054 85.7057L23.1475 83.9373L26.3686 81.411Z" fill="white" fill-opacity="0.2"/>
</g>
<g id="Vector_3">
<path fill-rule="evenodd" clip-rule="evenodd" d="M46.144 45.3216L58.3433 58.0044L59.9839 60.46L60.543 63.2095L60.0675 65.9432L58.501 68.35L56.0942 69.9165L53.3605 70.392L50.611 69.833L48.1554 68.1924L35.956 55.5095L34.3154 53.0539L33.7563 50.3044L34.2318 47.5707L35.7984 45.1639L38.2052 43.5974L40.9389 43.1219L43.6883 43.681L46.144 45.3216Z" fill="url(#paint1_linear_669_780)"/>
<path fill-rule="evenodd" clip-rule="evenodd" d="M48.0433 58.1463L73.5132 32.6764L75.9074 31.0973L78.6072 30.5879L81.307 31.0973L83.7012 32.6764L85.2803 35.0706L85.7897 37.7704L85.2803 40.4702L83.7012 42.8644L58.2313 68.3343L55.8371 69.9134L53.1373 70.4228L50.4375 69.9134L48.0433 68.3343L46.4642 65.9401L45.9548 63.2403L46.4642 60.5405L48.0433 58.1463Z" fill="url(#paint2_linear_669_780)"/>
</g>
</g>
<defs>
<filter id="filter0_f_669_780" x="2.63159" y="97.3672" width="114.737" height="38.9473" filterUnits="userSpaceOnUse" color-interpolation-filters="sRGB">
<feFlood flood-opacity="0" result="BackgroundImageFix"/>
<feBlend mode="normal" in="SourceGraphic" in2="BackgroundImageFix" result="shape"/>
<feGaussianBlur stdDeviation="5" result="effect1_foregroundBlur_669_780"/>
</filter>
<filter id="filter1_ii_669_780" x="0" y="0" width="120" height="105.053" filterUnits="userSpaceOnUse" color-interpolation-filters="sRGB">
<feFlood flood-opacity="0" result="BackgroundImageFix"/>
<feBlend mode="normal" in="SourceGraphic" in2="BackgroundImageFix" result="shape"/>
<feColorMatrix in="SourceAlpha" type="matrix" values="0 0 0 0 0 0 0 0 0 0 0 0 0 0 0 0 0 0 127 0" result="hardAlpha"/>
<feOffset dy="5"/>
<feGaussianBlur stdDeviation="2"/>
<feComposite in2="hardAlpha" operator="arithmetic" k2="-1" k3="1"/>
<feColorMatrix type="matrix" values="0 0 0 0 1 0 0 0 0 1 0 0 0 0 1 0 0 0 0.6 0"/>
<feBlend mode="normal" in2="shape" result="effect1_innerShadow_669_780"/>
<feColorMatrix in="SourceAlpha" type="matrix" values="0 0 0 0 0 0 0 0 0 0 0 0 0 0 0 0 0 0 127 0" result="hardAlpha"/>
<feOffset dy="2"/>
<feGaussianBlur stdDeviation="1"/>
<feComposite in2="hardAlpha" operator="arithmetic" k2="-1" k3="1"/>
<feColorMatrix type="matrix" values="0 0 0 0 1 0 0 0 0 1 0 0 0 0 1 0 0 0 0.4 0"/>
<feBlend mode="normal" in2="effect1_innerShadow_669_780" result="effect2_innerShadow_669_780"/>
</filter>
<filter id="filter2_i_669_780" x="12.6316" y="12.6309" width="94.7368" height="81.7891" filterUnits="userSpaceOnUse" color-interpolation-filters="sRGB">
<feFlood flood-opacity="0" result="BackgroundImageFix"/>
<feBlend mode="normal" in="SourceGraphic" in2="BackgroundImageFix" result="shape"/>
<feColorMatrix in="SourceAlpha" type="matrix" values="0 0 0 0 0 0 0 0 0 0 0 0 0 0 0 0 0 0 127 0" result="hardAlpha"/>
<feOffset dy="9"/>
<feGaussianBlur stdDeviation="3"/>
<feComposite in2="hardAlpha" operator="arithmetic" k2="-1" k3="1"/>
<feColorMatrix type="matrix" values="0 0 0 0 1 0 0 0 0 1 0 0 0 0 1 0 0 0 0.21 0"/>
<feBlend mode="normal" in2="shape" result="effect1_innerShadow_669_780"/>
</filter>
<filter id="filter3_f_669_780" x="14.9475" y="54.5479" width="90.1052" height="88.4004" filterUnits="userSpaceOnUse" color-interpolation-filters="sRGB">
<feFlood flood-opacity="0" result="BackgroundImageFix"/>
<feBlend mode="normal" in="SourceGraphic" in2="BackgroundImageFix" result="shape"/>
<feGaussianBlur stdDeviation="2" result="effect1_foregroundBlur_669_780"/>
</filter>
<linearGradient id="paint0_linear_669_780" x1="60" y1="12.6309" x2="60" y2="88.4203" gradientUnits="userSpaceOnUse">
<stop stop-color="white" stop-opacity="0"/>
<stop offset="1" stop-color="white" stop-opacity="0.2"/>
</linearGradient>
<linearGradient id="paint1_linear_669_780" x1="67.6188" y1="30.5902" x2="67.6188" y2="70.4251" gradientUnits="userSpaceOnUse">
<stop stop-color="white"/>
<stop offset="1" stop-color="#FFDADA"/>
</linearGradient>
<linearGradient id="paint2_linear_669_780" x1="67.6188" y1="30.5902" x2="67.6188" y2="70.4251" gradientUnits="userSpaceOnUse">
<stop stop-color="white"/>
<stop offset="1" stop-color="#FFDADA"/>
</linearGradient>
</defs>
</svg>
