<svg width="200" height="200" viewBox="0 0 200 200" fill="none" xmlns="http://www.w3.org/2000/svg">
<path d="M70.7863 18.0391H129.21C164.375 18.0391 181.958 35.6215 181.958 70.7863V129.21C181.958 164.375 164.375 181.958 129.21 181.958H70.7863C35.6215 181.958 18.0391 164.375 18.0391 129.21V70.7863C18.0391 35.6215 35.6215 18.0391 70.7863 18.0391Z" fill="black"/>
<path d="M119.231 50.5631L143.897 74.9923C145.996 77.0673 147.03 79.1669 146.997 81.2826C146.964 83.3984 146.061 85.327 144.295 87.0766C142.448 88.9076 140.454 89.8353 138.322 89.876C136.19 89.9085 134.074 88.8832 131.975 86.8081L106.748 61.8256C103.884 58.9855 101.117 56.9755 98.456 55.7956C95.795 54.6156 92.9957 54.4284 90.0661 55.2422C87.1284 56.0478 83.9792 58.1229 80.6021 61.4594C75.9473 66.0734 73.7258 70.4026 73.9536 74.447C74.1815 78.4914 76.4926 82.6905 80.8787 87.0278L106.309 112.222C108.433 114.321 109.474 116.421 109.442 118.504C109.409 120.596 108.498 122.524 106.699 124.306C104.909 126.08 102.932 127.008 100.783 127.081C98.6351 127.154 96.4949 126.137 94.3791 124.038L69.7139 99.6086C65.7021 95.6374 62.8051 91.8778 61.0229 88.3298C59.2408 84.7818 58.5735 80.77 59.0373 76.2943C59.4523 72.4614 60.6811 68.7507 62.7318 65.1539C64.7744 61.557 67.7039 57.8788 71.5042 54.1111C76.0287 49.6272 80.3498 46.1932 84.4674 43.8007C88.5769 41.4082 92.5562 40.0818 96.3972 39.8051C100.246 39.5284 104.038 40.2934 107.79 42.0999C111.541 43.9065 115.35 46.7221 119.223 50.5631H119.231Z" fill="url(#paint0_linear_413_17)"/>
<path d="M80.5395 149.133L55.8824 124.704C53.7829 122.621 52.7494 120.53 52.782 118.414C52.8145 116.298 53.7178 114.369 55.4837 112.62C57.3309 110.789 59.3247 109.861 61.4567 109.821C63.5888 109.788 65.7046 110.805 67.8041 112.888L93.0226 137.871C95.8952 140.711 98.6538 142.721 101.315 143.901C103.976 145.081 106.775 145.26 109.713 144.454C112.651 143.649 115.8 141.574 119.177 138.229C123.832 133.615 126.053 129.286 125.825 125.241C125.598 121.197 123.286 116.998 118.9 112.652L105.351 99.3474C103.227 97.2479 102.186 95.1484 102.218 93.0651C102.251 90.9738 103.162 89.0451 104.961 87.263C106.751 85.489 108.728 84.5613 110.877 84.4881C113.025 84.4148 115.165 85.432 117.281 87.5315L130.057 100.072C134.069 104.043 136.966 107.802 138.748 111.35C140.53 114.898 141.197 118.91 140.734 123.386C140.319 127.219 139.09 130.93 137.039 134.526C134.997 138.123 132.067 141.801 128.267 145.569C123.742 150.053 119.421 153.487 115.303 155.88C111.186 158.272 107.206 159.607 103.357 159.883C99.5083 160.16 95.7162 159.395 91.9647 157.588C88.2133 155.782 84.4048 152.966 80.5313 149.125L80.5395 149.133Z" fill="url(#paint1_linear_413_17)"/>
<path d="M95.9205 86.0987C100.923 86.0987 104.978 82.0437 104.978 77.0416C104.978 72.0394 100.923 67.9844 95.9205 67.9844C90.9183 67.9844 86.8633 72.0394 86.8633 77.0416C86.8633 82.0437 90.9183 86.0987 95.9205 86.0987Z" fill="url(#paint2_radial_413_17)"/>
<defs>
<linearGradient id="paint0_linear_413_17" x1="139.84" y1="64.7957" x2="63.4015" y2="98.7653" gradientUnits="userSpaceOnUse">
<stop stop-color="#201C1B"/>
<stop offset="0.36" stop-color="#77390D"/>
<stop offset="0.67" stop-color="#EA8101"/>
<stop offset="1" stop-color="#F4B852"/>
</linearGradient>
<linearGradient id="paint1_linear_413_17" x1="62.0436" y1="135.907" x2="150.622" y2="109.545" gradientUnits="userSpaceOnUse">
<stop stop-color="#1F1D1C"/>
<stop offset="0.37" stop-color="#77390D"/>
<stop offset="0.67" stop-color="#EA8101"/>
<stop offset="1" stop-color="#F4FB52"/>
</linearGradient>
<radialGradient id="paint2_radial_413_17" cx="0" cy="0" r="1" gradientUnits="userSpaceOnUse" gradientTransform="translate(95.9205 77.0497) scale(9.05719)">
<stop stop-color="#F4B852"/>
<stop offset="0.33" stop-color="#EA8101"/>
<stop offset="0.64" stop-color="#77390D"/>
<stop offset="1" stop-color="#211C1D"/>
</radialGradient>
</defs>
</svg>
